<svg width="470" height="471" viewBox="0 0 470 471" fill="none" xmlns="http://www.w3.org/2000/svg">
<path d="M420.306 311.551C418.038 311.551 415.862 310.572 414.01 308.72C411.281 305.991 410.648 302.173 412.274 298.247C414.226 293.535 418.896 289.98 423.138 289.98C425.309 289.98 427.262 290.875 428.786 292.568C431.5 295.581 431.981 299.935 430.078 304.208C428.122 308.601 424.196 311.551 420.306 311.551ZM403.778 330.547C397.084 341.969 382.524 350.916 370.63 350.916H370.629C365.405 350.916 360.892 349.163 357.577 345.847C353.912 342.183 353.188 337.317 355.481 331.78C360.654 319.288 380.272 306.077 393.646 306.077C398.994 306.077 402.997 308.175 405.217 312.143C408.164 317.403 407.652 323.937 403.778 330.547ZM350.089 114.185C348.332 110.312 348.87 106.32 351.569 103.237C354.124 100.316 357.329 98.7734 360.838 98.7734C366.52 98.7734 372.465 103.028 374.672 108.669C376.362 112.993 375.482 117.18 372.258 120.156C370 122.24 367.196 123.343 364.145 123.343C364.145 123.343 364.145 123.343 364.144 123.343C358.5 123.341 352.456 119.405 350.089 114.185ZM339.862 102.735C334.492 111.971 323.632 117.06 309.29 117.06C309.289 117.06 309.29 117.06 309.289 117.06C288.121 117.06 264.892 105.908 257.506 92.204C253.674 85.088 254.061 77.6613 258.629 70.7267C264.384 61.9853 275.189 57.1734 289.05 57.1734C309.776 57.1734 332.105 67.764 339.882 81.284C343.934 88.3253 343.926 95.7427 339.862 102.735ZM321.74 200.888C320.748 208.565 313.121 213.525 302.309 213.525C302.309 213.525 302.309 213.525 302.308 213.525C291.834 213.525 280.704 208.648 280.704 199.611C280.704 189.627 290.534 185.159 300.276 185.159C308.069 185.159 315.232 187.797 318.969 192.049C321.2 194.585 322.157 197.643 321.74 200.888ZM249.113 257.696C224.93 257.696 198.224 247.992 197.244 232.315C196.814 225.449 198.881 219.537 203.388 214.74C210.476 207.197 223.506 202.869 239.142 202.869C257.405 202.869 274.877 208.755 283.653 217.86C288.14 222.517 290.308 227.8 290.093 233.561C289.434 251.355 268.492 257.696 249.113 257.696ZM221.642 379.92C217.91 384.273 212.985 386.575 207.394 386.575C207.394 386.575 207.394 386.575 207.393 386.575C199.989 386.573 192.137 382.36 187.858 376.089C184.733 371.511 183.973 366.535 185.718 362.077C187.712 356.981 192.492 354.175 199.178 354.175C209.084 354.175 220.28 360.325 223.629 367.607C224.994 370.575 225.757 375.119 221.642 379.92ZM159.966 378.485C155.39 383.359 148.706 385.933 140.641 385.933C140.638 385.933 140.638 385.933 140.636 385.933C120.421 385.931 95.2236 370.017 87.7702 352.547C83.5809 342.725 85.2049 333.528 92.4689 325.948C95.3996 322.889 99.7702 321.339 105.454 321.339C125.332 321.339 155.418 340.436 162.944 357.829C166.332 365.661 165.304 372.804 159.966 378.485ZM80.1316 303.94C78.7836 299.488 80.1236 295.524 83.8062 293.069C85.9876 291.616 88.2542 290.877 90.5449 290.877C94.8449 290.877 98.9556 293.625 101.273 298.049C103.866 302.999 103.648 308.716 100.702 312.971C99.2356 315.088 97.1262 316.207 94.5996 316.207C94.5982 316.207 94.5982 316.207 94.5982 316.207C88.9702 316.207 82.0742 310.359 80.1316 303.94ZM81.8809 120.941C88.7929 109.755 103.973 101.32 117.19 101.32C126.633 101.32 134 105.536 137.929 113.189C139.742 116.721 139.15 121.129 136.214 125.939C128.454 138.647 107.132 151.12 93.1676 151.12C87.0236 151.12 82.5849 148.74 80.3316 144.233C76.5729 136.717 77.1089 128.661 81.8809 120.941ZM235.046 3.22939C107.169 3.22939 3.13184 107.264 3.13184 235.143C3.13184 363.02 107.169 467.056 235.046 467.056C362.922 467.056 466.96 363.02 466.96 235.143C466.96 107.264 362.922 3.22939 235.046 3.22939Z" fill="#D63B3F"/>
<path d="M235.047 467.056C107.169 467.056 3.13237 363.02 3.13237 235.143C3.13237 107.264 107.169 3.22936 235.047 3.22936C362.923 3.22936 466.96 107.264 466.96 235.143C466.96 363.02 362.923 467.056 235.047 467.056ZM235.047 0.260022C105.531 0.260022 0.162109 105.627 0.162109 235.143C0.162109 364.657 105.531 470.027 235.047 470.027C364.561 470.027 469.929 364.657 469.929 235.143C469.929 105.627 364.561 0.260022 235.047 0.260022Z" fill="#251624"/>
<path d="M337.295 101.24C340.844 95.136 340.848 88.92 337.308 82.7653C330.011 70.08 308.814 60.144 289.051 60.144C276.22 60.144 266.298 64.4813 261.11 72.36C257.124 78.412 256.792 84.6147 260.123 90.7933C267.043 103.639 289.1 114.089 309.29 114.089C322.532 114.089 332.478 109.527 337.295 101.24Z" fill="#B71F32"/>
<path d="M260.123 90.7933C256.792 84.6147 257.124 78.412 261.109 72.36C266.297 64.4813 276.22 60.144 289.051 60.144C308.813 60.144 330.011 70.08 337.308 82.7653C340.848 88.92 340.844 95.136 337.295 101.24C332.477 109.527 322.532 114.089 309.289 114.089C289.1 114.089 267.043 103.639 260.123 90.7933ZM289.051 57.1733C275.189 57.1733 264.384 61.9853 258.629 70.7267C254.061 77.6613 253.675 85.088 257.507 92.204C264.892 105.908 288.121 117.06 309.289 117.06C309.291 117.06 309.289 117.06 309.291 117.06C323.632 117.06 334.492 111.971 339.863 102.735C343.927 95.7427 343.935 88.3253 339.883 81.284C332.105 67.764 309.776 57.1733 289.051 57.1733Z" fill="#601318"/>
<path d="M364.144 120.372C364.146 120.372 364.146 120.372 364.146 120.372C366.47 120.372 368.52 119.565 370.243 117.975C373.362 115.096 372.624 111.587 371.906 109.752C370.15 105.26 365.29 101.744 360.839 101.744C358.174 101.744 355.807 102.904 353.806 105.192C351.338 108.013 351.892 110.973 352.795 112.959C354.712 117.184 359.591 120.371 364.144 120.372Z" fill="#B71F32"/>
<path d="M353.806 105.192C355.807 102.904 358.174 101.744 360.839 101.744C365.29 101.744 370.15 105.26 371.906 109.752C372.624 111.587 373.362 115.096 370.243 117.975C368.52 119.565 366.47 120.372 364.146 120.372C364.146 120.372 364.146 120.372 364.144 120.372C359.591 120.371 354.712 117.184 352.795 112.959C351.892 110.973 351.338 108.013 353.806 105.192ZM364.146 123.343C367.196 123.343 370 122.24 372.259 120.156C375.483 117.18 376.363 112.993 374.672 108.669C372.466 103.028 366.52 98.7734 360.839 98.7734C357.33 98.7734 354.124 100.316 351.57 103.237C348.871 106.32 348.332 110.312 350.09 114.185C352.456 119.405 358.5 123.341 364.144 123.343C364.146 123.343 364.146 123.343 364.146 123.343Z" fill="#601318"/>
<path d="M160.219 359.008C153.063 342.469 124.401 324.309 105.455 324.309C100.611 324.309 96.9625 325.552 94.6132 328.004C86.5585 336.408 87.9319 345.356 90.5025 351.381C97.5532 367.907 121.449 382.961 140.636 382.964C140.637 382.964 140.64 382.964 140.641 382.964C147.969 382.964 153.744 380.772 157.801 376.452C162.328 371.635 163.141 365.765 160.219 359.008Z" fill="#B71F32"/>
<path d="M140.641 382.964C140.64 382.964 140.637 382.964 140.636 382.964C121.449 382.961 97.5531 367.907 90.5025 351.381C87.9318 345.356 86.5585 336.408 94.6131 328.004C96.9625 325.552 100.61 324.309 105.454 324.309C124.401 324.309 153.062 342.469 160.218 359.008C163.141 365.765 162.328 371.635 157.801 376.452C153.744 380.772 147.969 382.964 140.641 382.964ZM105.454 321.339C99.7705 321.339 95.3998 322.889 92.4691 325.948C85.2051 333.528 83.5811 342.725 87.7705 352.547C95.2238 370.017 120.421 385.931 140.636 385.933C140.638 385.933 140.638 385.933 140.641 385.933C148.706 385.933 155.39 383.359 159.966 378.485C165.304 372.804 166.332 365.661 162.944 357.829C155.418 340.436 125.332 321.339 105.454 321.339Z" fill="#601318"/>
<path d="M220.931 368.848C218.064 362.613 207.899 357.144 199.179 357.144C195.375 357.144 190.43 358.187 188.484 363.159C187.108 366.676 187.758 370.672 190.311 374.415C194.063 379.911 200.927 383.603 207.394 383.604C212.091 383.604 216.238 381.661 219.388 377.988C221.87 375.092 222.388 372.017 220.931 368.848Z" fill="#B71F32"/>
<path d="M207.393 383.604C200.927 383.603 194.063 379.911 190.311 374.415C187.757 370.672 187.108 366.676 188.484 363.159C190.429 358.187 195.375 357.144 199.179 357.144C207.899 357.144 218.064 362.613 220.931 368.848C222.388 372.017 221.869 375.092 219.388 377.988C216.237 381.661 212.091 383.604 207.393 383.604ZM199.179 354.175C192.492 354.175 187.712 356.981 185.719 362.077C183.973 366.535 184.733 371.511 187.859 376.089C192.137 382.36 199.989 386.573 207.393 386.575C207.395 386.575 207.395 386.575 207.395 386.575C212.985 386.575 217.911 384.273 221.643 379.92C225.757 375.119 224.995 370.575 223.629 367.607C220.28 360.325 209.084 354.175 199.179 354.175Z" fill="#601318"/>
<path d="M94.599 313.236H94.6003C96.1523 313.237 97.3496 312.596 98.2603 311.28C101.027 307.284 100.272 302.537 98.643 299.428C96.839 295.985 93.7363 293.848 90.5456 293.848C88.851 293.848 87.139 294.417 85.455 295.54C82.8256 297.293 81.991 299.829 82.975 303.08C84.5256 308.205 90.2843 313.236 94.599 313.236Z" fill="#B71F32"/>
<path d="M85.4544 295.54C87.1384 294.417 88.8504 293.848 90.5451 293.848C93.7357 293.848 96.8384 295.985 98.6424 299.428C100.272 302.537 101.026 307.284 98.2597 311.28C97.3491 312.596 96.1517 313.237 94.5997 313.236H94.5984C90.2837 313.236 84.5251 308.205 82.9744 303.08C81.9904 299.829 82.8251 297.293 85.4544 295.54ZM94.5997 316.207C97.1264 316.207 99.2357 315.088 100.702 312.971C103.648 308.716 103.866 302.999 101.273 298.049C98.9557 293.625 94.8451 290.877 90.5451 290.877C88.2544 290.877 85.9877 291.616 83.8064 293.069C80.1237 295.524 78.7837 299.488 80.1317 303.94C82.0744 310.359 88.9704 316.207 94.5984 316.207C94.5984 316.207 94.5984 316.207 94.5997 316.207Z" fill="#601318"/>
<path d="M393.647 309.048C381.476 309.048 362.938 321.539 358.226 332.915C356.403 337.316 356.891 340.961 359.678 343.747C362.463 346.533 366.148 347.945 370.63 347.945C381.387 347.945 395.107 339.467 401.216 329.044C403.564 325.04 405.715 319.108 402.627 313.593C400.938 310.577 397.916 309.048 393.647 309.048Z" fill="#B71F32"/>
<path d="M401.216 329.044C395.107 339.467 381.387 347.945 370.629 347.945C366.148 347.945 362.463 346.533 359.677 343.747C356.891 340.961 356.403 337.316 358.225 332.915C362.937 321.539 381.476 309.048 393.647 309.048C397.916 309.048 400.937 310.577 402.627 313.593C405.715 319.108 403.564 325.04 401.216 329.044ZM393.647 306.077C380.272 306.077 360.655 319.288 355.481 331.78C353.188 337.317 353.912 342.183 357.577 345.847C360.892 349.163 365.405 350.916 370.629 350.916H370.631C382.524 350.916 397.084 341.969 403.779 330.547C407.652 323.937 408.164 317.403 405.217 312.143C402.997 308.175 398.995 306.077 393.647 306.077Z" fill="#601318"/>
<path d="M423.139 292.949C420.08 292.949 416.513 295.776 415.019 299.383C414.347 301.005 413.593 304.104 416.111 306.62C417.411 307.921 418.824 308.581 420.307 308.581C422.999 308.583 425.901 306.287 427.365 303C428.779 299.828 428.484 296.671 426.58 294.555C425.621 293.489 424.463 292.949 423.139 292.949Z" fill="#B71F32"/>
<path d="M427.365 303C425.901 306.287 422.999 308.583 420.307 308.581C418.824 308.581 417.411 307.921 416.111 306.62C413.593 304.104 414.347 301.005 415.019 299.383C416.513 295.776 420.08 292.949 423.139 292.949C424.463 292.949 425.621 293.489 426.58 294.555C428.484 296.671 428.779 299.828 427.365 303ZM428.787 292.568C427.263 290.875 425.309 289.98 423.139 289.98C418.896 289.98 414.227 293.535 412.275 298.247C410.648 302.173 411.281 305.991 414.011 308.72C415.863 310.572 418.039 311.551 420.307 311.551C424.196 311.551 428.123 308.601 430.079 304.208C431.981 299.935 431.5 295.581 428.787 292.568Z" fill="#601318"/>
<path d="M93.1685 148.151C106.048 148.151 126.494 136.16 133.68 124.389C135.331 121.685 136.95 117.783 135.287 114.547C130.935 106.069 123.044 104.291 117.191 104.291C104.918 104.291 90.8245 112.12 84.4085 122.503C81.4778 127.244 78.8525 134.633 82.9898 142.905C84.7298 146.385 88.1551 148.151 93.1685 148.151Z" fill="#B71F32"/>
<path d="M84.4085 122.503C90.8245 112.12 104.918 104.291 117.191 104.291C123.044 104.291 130.935 106.069 135.287 114.547C136.95 117.783 135.331 121.685 133.68 124.389C126.494 136.16 106.048 148.151 93.1685 148.151C88.1551 148.151 84.7298 146.385 82.9898 142.905C78.8525 134.633 81.4778 127.244 84.4085 122.503ZM93.1685 151.12C107.132 151.12 128.455 138.647 136.215 125.939C139.151 121.129 139.743 116.721 137.93 113.189C134 105.536 126.634 101.32 117.191 101.32C103.974 101.32 88.7938 109.755 81.8818 120.941C77.1098 128.661 76.5738 136.717 80.3325 144.233C82.5858 148.74 87.0245 151.12 93.1685 151.12Z" fill="#601318"/>
<path d="M287.127 233.451C287.309 228.527 285.42 223.975 281.513 219.921C273.271 211.368 256.639 205.84 239.143 205.84C224.324 205.84 212.081 209.824 205.553 216.775C201.631 220.949 199.832 226.116 200.208 232.128C201.052 245.647 226.177 254.727 249.113 254.727C267.108 254.727 286.544 249.137 287.127 233.451Z" fill="#B71F32"/>
<path d="M200.208 232.128C199.832 226.116 201.631 220.949 205.553 216.775C212.081 209.824 224.324 205.84 239.143 205.84C256.639 205.84 273.271 211.368 281.513 219.921C285.42 223.975 287.309 228.527 287.127 233.451C286.544 249.137 267.108 254.727 249.113 254.727C226.177 254.727 201.052 245.647 200.208 232.128ZM239.143 202.869C223.507 202.869 210.476 207.197 203.388 214.74C198.881 219.537 196.815 225.449 197.244 232.315C198.224 247.992 224.931 257.696 249.113 257.696C268.492 257.696 289.435 251.355 290.093 233.561C290.308 227.8 288.14 222.517 283.653 217.86C274.877 208.755 257.405 202.869 239.143 202.869Z" fill="#601318"/>
<path d="M300.276 188.128C292.617 188.128 283.675 191.135 283.675 199.611C283.675 206.461 293.149 210.556 302.308 210.556H302.309C309.315 210.556 317.836 207.925 318.793 200.508C319.104 198.099 318.413 195.913 316.739 194.009C313.597 190.437 307.136 188.128 300.276 188.128Z" fill="#B71F32"/>
<path d="M318.793 200.508C317.836 207.925 309.315 210.556 302.309 210.556H302.308C293.149 210.556 283.675 206.461 283.675 199.611C283.675 191.135 292.617 188.128 300.276 188.128C307.136 188.128 313.597 190.437 316.739 194.009C318.413 195.913 319.104 198.099 318.793 200.508ZM300.276 185.159C290.535 185.159 280.704 189.627 280.704 199.611C280.704 208.648 291.835 213.525 302.308 213.525C302.309 213.525 302.309 213.525 302.309 213.525C313.121 213.525 320.748 208.565 321.74 200.888C322.157 197.643 321.2 194.585 318.969 192.049C315.232 187.797 308.069 185.159 300.276 185.159Z" fill="#601318"/>
<path d="M135.424 375.909C119.788 372.481 105.764 362.268 97.7043 348.437C94.519 342.972 92.3497 336.353 92.755 330.193C86.8283 337.935 88.1537 345.877 90.503 351.381C97.5537 367.907 121.45 382.961 140.636 382.964C140.638 382.964 140.64 382.964 140.642 382.964C147.97 382.964 153.744 380.772 157.802 376.452C157.856 376.395 157.902 376.336 157.955 376.279C150.508 377.603 142.815 377.528 135.424 375.909Z" fill="#9D1E2A"/>
<path d="M369.884 342.14C366.616 343.304 362.59 343.863 359.22 343.217C359.372 343.393 359.506 343.576 359.677 343.747C362.462 346.533 366.148 347.945 370.629 347.945C381.386 347.945 395.108 339.467 401.216 329.044C403.168 325.715 404.973 321.052 403.754 316.404C395.393 328.124 383.457 337.311 369.884 342.14Z" fill="#9D1E2A"/>
<path d="M240.287 244.996C230.564 243.809 220.822 241.061 212.842 235.381C208.244 232.109 204.303 227.757 201.667 222.791C200.502 225.619 199.996 228.733 200.208 232.128C201.052 245.647 226.178 254.727 249.114 254.727C264.476 254.727 280.88 250.647 285.715 239.693C271.243 244.928 255.568 246.863 240.287 244.996Z" fill="#9D1E2A"/>
<path d="M289.05 60.144C276.22 60.144 266.297 64.4814 261.109 72.36C260.804 72.824 260.526 73.2894 260.264 73.7547C266.477 71.0014 273.245 69.4187 280.034 69.0747C293.132 68.4107 306.244 72.1014 317.737 78.4187C326.021 82.972 333.644 89.028 339.321 96.5307C340.61 91.956 339.941 87.344 337.308 82.7654C330.01 70.08 308.813 60.144 289.05 60.144Z" fill="#9D1E2A"/>
<path d="M117.191 104.291C104.917 104.291 90.8239 112.12 84.4079 122.503C81.9519 126.476 79.7266 132.313 81.5012 138.969C86.7146 128.3 96.3412 119.579 107.568 115.384C116.019 112.227 125.127 111.417 134.077 112.517C129.58 105.793 122.539 104.291 117.191 104.291Z" fill="#9D1E2A"/>
<path d="M221.642 379.92C217.91 384.273 212.985 386.575 207.394 386.575C207.394 386.575 207.394 386.575 207.393 386.575C199.989 386.573 192.137 382.36 187.858 376.089C184.733 371.511 183.973 366.535 185.718 362.077C187.712 356.981 192.492 354.175 199.178 354.175C209.084 354.175 220.28 360.325 223.629 367.607C224.994 370.575 225.757 375.119 221.642 379.92ZM159.966 378.485C155.39 383.359 148.706 385.933 140.641 385.933C140.638 385.933 140.638 385.933 140.636 385.933C120.421 385.931 95.2236 370.017 87.7702 352.547C83.5809 342.725 85.2049 333.528 92.4689 325.948C95.3996 322.889 99.7702 321.339 105.454 321.339C125.332 321.339 155.418 340.436 162.944 357.829C166.332 365.661 165.304 372.804 159.966 378.485ZM80.1316 303.94C78.7836 299.488 80.1236 295.524 83.8062 293.069C85.9876 291.616 88.2542 290.877 90.5449 290.877C94.8449 290.877 98.9556 293.625 101.273 298.049C103.866 302.999 103.648 308.716 100.702 312.971C99.2356 315.088 97.1262 316.207 94.5996 316.207C94.5982 316.207 94.5982 316.207 94.5982 316.207C88.9689 316.207 82.0742 310.359 80.1316 303.94ZM258.197 388.819C259.554 384.715 258.14 380.193 256.056 376.408C248.306 362.335 232.346 354.965 216.894 350.564C201.297 346.121 185.113 343.743 168.898 343.511C166.352 343.473 163.717 343.471 161.393 342.429C157.56 340.711 155.48 336.64 152.82 333.388C147.245 326.571 138.714 323.068 131.293 318.327C123.872 313.585 116.817 306.12 117.477 297.339C117.797 293.099 119.896 288.716 118.278 284.784C117.198 282.161 114.704 280.444 112.337 278.879C98.1742 269.513 84.0102 260.148 69.8476 250.781C66.7422 248.728 63.2022 245.272 64.8409 241.928C66.3756 238.795 70.9316 239.103 73.9422 237.337C77.5022 235.249 78.4222 230.239 77.0329 226.353C75.6436 222.467 72.5142 219.489 69.3702 216.816C57.5302 206.749 44.0302 198.813 31.872 189.133C24.7089 183.431 17.9214 176.927 12.6037 169.515C6.45117 190.333 3.13184 212.356 3.13184 235.143C3.13184 278.939 15.3392 319.936 36.5246 354.917C36.934 355.015 37.3428 355.115 37.7594 355.193C44.3076 356.433 51.1236 355.171 57.6902 356.307C76.2342 359.515 86.1156 379.512 100.902 391.153C114.028 401.488 132.152 405.144 148.257 400.707C157.785 398.081 166.674 392.808 176.532 392.104C187.248 391.34 197.482 396.064 207.925 398.589C219.7 401.436 232.14 401.483 243.934 398.723C249.833 397.343 256.296 394.569 258.197 388.819Z" fill="#CC2B39"/>
<path d="M430.079 304.208C428.123 308.601 424.196 311.551 420.307 311.551C418.039 311.551 415.863 310.572 414.011 308.72C411.281 305.991 410.648 302.173 412.275 298.247C414.227 293.535 418.896 289.98 423.139 289.98C425.309 289.98 427.263 290.875 428.787 292.568C431.5 295.581 431.981 299.935 430.079 304.208ZM403.779 330.547C397.084 341.969 382.524 350.916 370.631 350.916H370.629C365.405 350.916 360.892 349.163 357.577 345.847C353.912 342.183 353.188 337.317 355.481 331.779C360.655 319.288 380.272 306.077 393.647 306.077C398.995 306.077 402.997 308.175 405.217 312.143C408.164 317.403 407.652 323.937 403.779 330.547ZM466.728 225.079C449.06 252.62 422.713 274.509 392.377 286.777C379.351 292.047 365.143 295.88 354.989 305.596C347.451 312.811 342.852 322.673 335.265 329.836C326.891 337.743 315.476 341.799 307.016 349.615C304.136 352.275 301.467 355.965 302.297 359.797C302.816 362.187 304.596 364.069 306.303 365.819C311.095 370.735 316.164 375.824 322.705 377.909C328.576 379.781 334.956 378.993 340.964 377.628C349.089 375.781 356.983 372.911 364.395 369.105C370.717 365.86 376.745 361.913 383.508 359.728C388.831 358.005 394.444 357.431 399.964 356.521C413.988 354.212 427.399 349.696 440.045 343.479C457.213 311.123 466.96 274.252 466.96 235.143C466.96 231.769 466.871 228.417 466.728 225.079Z" fill="#CC2B39"/>
<path d="M372.259 120.156C370 122.24 367.196 123.343 364.145 123.343C364.145 123.343 364.145 123.343 364.144 123.343C358.5 123.341 352.456 119.405 350.089 114.185C348.332 110.312 348.871 106.32 351.569 103.237C354.124 100.316 357.329 98.7733 360.839 98.7733C366.52 98.7733 372.465 103.028 374.672 108.669C376.363 112.993 375.483 117.18 372.259 120.156ZM339.863 102.735C334.492 111.971 323.632 117.06 309.291 117.06C309.289 117.06 309.291 117.06 309.289 117.06C288.121 117.06 264.892 105.908 257.507 92.204C253.675 85.088 254.061 77.6613 258.629 70.7267C264.384 61.9853 275.189 57.1733 289.051 57.1733C309.776 57.1733 332.105 67.764 339.883 81.284C343.935 88.3253 343.928 95.7427 339.863 102.735ZM395.737 68.088C394.287 67.444 392.795 66.904 391.244 66.516C385.229 65.0133 378.096 66.2613 374.299 71.1613C372.892 72.9747 371.881 75.2973 369.795 76.256C368.713 76.7533 367.484 76.8013 366.293 76.7813C351.248 76.5333 338.165 67.1587 324.967 59.932C307.276 50.244 287.732 43.9547 267.711 41.5053C260.492 40.6227 253.017 40.256 246.084 42.4546C237.34 45.2293 230.032 52.2013 226.851 60.8053C223.668 69.4107 224.683 79.4586 229.519 87.2546C234.343 95.0306 242.379 100.185 250.385 104.617C275.071 118.277 302.155 127.593 330.02 132.009C334.413 132.705 339.448 133.687 341.623 137.567C344.667 142.996 339.895 149.371 335.425 153.703C330.957 158.036 326.057 164.235 328.875 169.784C330.475 172.936 334.056 174.475 337.4 175.623C352.241 180.712 368.065 182.924 383.735 182.101C394.008 181.561 404.899 179.843 414.132 184.38C421.456 187.98 426.507 194.991 433.341 199.451C440.859 204.356 450.077 205.887 459.041 206.356C461.077 206.463 463.135 206.504 465.185 206.451C458.485 152.395 433.112 104.052 395.737 68.088Z" fill="#CC2B39"/>
<path d="M197.244 232.315C196.815 225.449 198.882 219.537 203.388 214.74C210.476 207.197 223.507 202.869 239.143 202.869C257.406 202.869 274.878 208.755 283.654 217.86C288.14 222.517 290.308 227.8 290.094 233.561C289.435 251.355 268.492 257.696 249.114 257.696C224.931 257.696 198.224 247.992 197.244 232.315ZM300.276 185.159C308.07 185.159 315.232 187.797 318.97 192.048C321.2 194.585 322.158 197.643 321.74 200.888C320.748 208.565 313.122 213.525 302.31 213.525C302.31 213.525 302.31 213.525 302.308 213.525C291.835 213.525 280.704 208.648 280.704 199.611C280.704 189.627 290.535 185.159 300.276 185.159ZM136.215 125.939C128.455 138.647 107.132 151.121 93.1684 151.121C87.0244 151.121 82.5858 148.74 80.3324 144.233C76.5738 136.717 77.1098 128.661 81.8818 120.94C88.7938 109.755 103.974 101.32 117.191 101.32C126.634 101.32 134 105.536 137.93 113.189C139.743 116.721 139.151 121.129 136.215 125.939ZM292.394 278.092C301.378 278.26 310.391 279.289 319.322 278.307C328.252 277.324 337.37 274.021 343.104 267.104C348.838 260.187 350.064 249.124 344.155 242.355C340.207 237.835 334.047 235.964 329.379 232.191C324.712 228.419 322.054 220.485 326.759 216.76C328.342 215.507 330.408 215.059 332.166 214.063C336.943 211.353 338.555 204.995 337.536 199.597C335.931 191.095 329.139 184.291 321.358 180.505C313.576 176.72 304.835 175.489 296.246 174.447C283.527 172.903 270.727 171.66 257.923 172.085C238.272 172.739 218.019 177.24 199.342 171.097C183.602 165.92 170.608 153.016 165.324 137.311C161.572 126.157 161.472 113.74 155.766 103.449C151.344 95.476 143.972 89.588 136.41 84.4947C119.828 73.3267 101.186 64.892 81.5031 61.4987C61.5218 79.188 44.6018 100.256 31.6572 123.809C35.2999 125.021 38.7848 126.592 41.9538 128.78C55.4524 138.103 60.3284 156.423 73.5991 166.068C85.4418 174.675 101.207 174.559 115.672 176.819C135.368 179.897 155.72 189.457 164.23 207.485C170.674 221.136 169.352 237.485 175.906 251.085C185.112 270.189 207.72 279.236 228.878 280.671C250.035 282.105 271.191 277.696 292.394 278.092Z" fill="#CC2B39"/>
<path d="M429.467 361.425C417.176 365.756 404.918 370.179 392.702 374.715C390.13 375.669 387.466 376.689 385.572 378.673C383.679 380.659 382.811 383.908 384.34 386.185C385.182 387.437 386.582 388.192 387.986 388.744C394.639 391.361 401.726 390.368 408.804 388.557C416.328 380.044 423.24 370.979 429.467 361.425Z" fill="#CC2B39"/>
<path d="M302.919 432.743C303.243 429.187 300.133 426.055 296.699 425.076C293.265 424.097 289.604 424.735 286.087 425.352C269.572 428.251 253.121 431.569 236.483 433.719C227.147 434.924 217.908 436.949 208.475 437.335C204.455 437.498 179.535 434.3 194.157 428.283C197.196 427.032 200.891 426.037 202.125 422.992C203.205 420.328 201.701 417.161 199.36 415.495C197.019 413.827 194.053 413.341 191.192 413.071C162.012 410.32 131.683 425.103 104.025 415.403C92.716 411.437 83.1854 403.728 72.8694 397.629C70.7907 396.4 68.6307 395.236 66.416 394.179C96.6907 426.263 135.992 449.729 180.216 460.491C186.636 458.034 193.001 455.422 199.599 453.508C230.288 444.597 264.155 451.263 294.288 440.621C298.177 439.247 302.545 436.852 302.919 432.743Z" fill="#CC2B39"/>
<path d="M75.6724 196.809C76.5511 195.019 75.1591 192.979 73.7831 191.535C62.5484 179.747 46.6538 172.635 37.2926 159.309C35.2176 156.356 33.4567 152.925 33.6832 149.323C33.9098 145.72 36.7859 142.099 40.3938 142.189C41.8964 138.819 38.2264 135.499 34.9395 133.82C32.6838 132.669 30.3666 131.643 28.0046 130.733C22.5223 141.561 17.8682 152.875 14.1182 164.591C29.852 179.357 48.6951 190.821 69.1151 197.809C71.4124 198.596 74.6044 198.991 75.6724 196.809Z" fill="#CC2B39"/>
<path d="M245.526 300.011C267.944 293.051 292.998 302.603 315.408 295.617C321.269 293.789 327.268 290.823 333.248 292.209C334.573 292.516 335.893 293.065 336.813 294.067C339.386 296.868 337.58 301.569 334.701 304.055C328.212 309.653 317.316 309.8 313.145 317.287C312.008 319.328 311.546 321.7 310.337 323.699C307.818 327.865 302.701 329.539 297.985 330.749C264.844 339.252 229.885 340.604 196.185 334.685C193.569 334.225 190.409 333.189 189.989 330.567C189.641 328.399 191.48 326.512 193.34 325.345C207.357 316.564 227.476 326.631 241.618 318.053C244.27 316.444 246.689 313.963 247 310.877C247.312 307.792 244.568 304.415 241.532 305.047C240.352 302.881 243.172 300.741 245.526 300.011Z" fill="#CC2B39"/>
<path d="M131.131 68.7947C145.587 79.8147 159.757 92.6493 177.519 96.5147C180.539 97.172 183.748 97.5427 186.672 96.5427C189.596 95.5427 192.127 92.84 192.043 89.752C191.96 86.68 189.491 84.252 187.064 82.3653C171.537 70.296 150.972 65.8306 136.111 52.9506C134.409 51.4746 132.675 49.6307 132.688 47.3773C132.707 44.2547 136.011 42.228 139.028 41.4186C142.044 40.6106 145.443 40.2507 147.596 37.9893C151.803 33.572 147.896 26.264 143.293 22.2627C143.269 22.2427 143.244 22.2227 143.22 22.2027C125.76 29.76 109.411 39.404 94.4785 50.8186C107.667 52.776 120.255 60.5027 131.131 68.7947Z" fill="#CC2B39"/>
<path d="M214.579 4.14266C221.19 7.32266 227.623 11.2373 234.035 14.6693C264.792 31.136 302.575 37.0387 335.219 26.0013C304.88 11.412 270.902 3.22937 235.047 3.22937C228.148 3.22937 221.326 3.54932 214.579 4.14266Z" fill="#CC2B39"/>
<path d="M372.258 120.156C370 122.24 367.196 123.343 364.145 123.343C364.145 123.343 364.145 123.343 364.144 123.343C358.5 123.341 352.456 119.405 350.089 114.185C348.332 110.312 348.87 106.32 351.569 103.237C354.124 100.316 357.329 98.7733 360.838 98.7733C366.52 98.7733 372.465 103.028 374.672 108.669C376.362 112.993 375.482 117.18 372.258 120.156ZM410.894 84.136C401.66 82.7693 392.034 84.0053 383.493 87.7867C380.124 89.2787 376.82 91.1773 373.153 91.5333C368.753 91.96 364.468 90.1094 360.065 89.7107C352.814 89.0534 345.265 92.7813 341.634 99.092C341.569 99.2053 341.516 99.3253 341.453 99.44C341.157 100.193 340.817 100.944 340.429 101.689C338.253 107.611 339.289 114.715 343.434 119.492C347.966 124.715 355.102 126.653 361.758 128.527C372.078 131.429 382.269 134.792 392.289 138.6C395.89 139.968 400.046 142.136 400.324 145.977C400.5 148.404 398.964 150.737 399.25 153.153C399.637 156.423 403.026 158.337 406.012 159.723C423.038 167.625 440.678 175.656 459.398 176.353C450.345 141.831 433.509 110.432 410.894 84.136Z" fill="#B71F32"/>
<path d="M430.079 304.208C428.123 308.601 424.196 311.551 420.307 311.551C418.039 311.551 415.863 310.572 414.011 308.72C411.281 305.991 410.648 302.173 412.275 298.247C414.227 293.535 418.896 289.98 423.139 289.98C425.309 289.98 427.263 290.875 428.787 292.568C431.5 295.581 431.981 299.935 430.079 304.208ZM464.973 265.407C456.751 267.117 449.032 271.311 443.267 277.427C440.424 280.444 437.819 284.047 433.891 285.373C428.376 287.236 422.188 283.943 416.577 285.495C410.381 287.207 407.189 294.133 406.271 300.495C405.683 304.567 405.928 309.292 409.039 311.985C411.38 314.012 414.716 314.321 417.812 314.395C420.908 314.469 424.181 314.445 426.852 316.013C429.523 317.581 431.127 321.425 429.217 323.864C428.177 325.191 426.451 325.727 425.024 326.623C423.596 327.519 422.347 329.291 423.092 330.801C430.355 332.992 437.997 333.375 445.528 332.408C455.207 311.553 461.876 289.036 464.973 265.407Z" fill="#B71F32"/>
<path d="M159.967 378.485C155.391 383.359 148.707 385.933 140.642 385.933C140.639 385.933 140.639 385.933 140.636 385.933C120.422 385.931 95.2242 370.017 87.7709 352.547C83.5816 342.725 85.2056 333.528 92.4696 325.948C95.4002 322.889 99.7709 321.339 105.455 321.339C125.332 321.339 155.419 340.436 162.944 357.829C166.332 365.661 165.304 372.804 159.967 378.485ZM80.1322 303.94C78.7842 299.488 80.1242 295.524 83.8069 293.069C85.9882 291.616 88.2549 290.877 90.5456 290.877C94.8456 290.877 98.9562 293.625 101.274 298.049C103.867 302.999 103.648 308.716 100.703 312.971C99.2362 315.088 97.1269 316.207 94.6002 316.207C94.5989 316.207 94.5989 316.207 94.5989 316.207C88.9696 316.207 82.0749 310.359 80.1322 303.94ZM176.59 365.532C174.268 360.581 170.319 356.604 166.332 352.861C158.799 345.792 150.836 339.16 142.314 333.32C132.886 326.86 122.351 320.932 116.79 310.947C114.568 306.956 113.262 302.491 110.85 298.613C107.338 292.968 101.76 288.983 96.3296 285.149C91.3202 281.613 86.2749 278.056 80.7029 275.5C73.8749 272.367 66.1762 270.677 60.5082 265.748C58.8016 264.264 57.2936 262.495 55.2936 261.436C53.2936 260.379 50.5469 260.248 48.9989 261.899C46.1789 264.908 49.7496 269.776 49.0522 273.84C48.4562 277.313 44.6216 279.492 41.0989 279.357C37.5778 279.223 34.3742 277.347 31.4882 275.324C20.0538 267.312 11.183 256.397 3.34863 244.733C4.44397 271.513 10.0904 297.137 19.5544 320.847C25.9596 323.205 32.5872 324.955 39.3429 326.003C40.7389 326.219 42.2242 326.397 43.5162 325.827C46.2496 324.621 46.6229 320.693 45.2896 318.021C43.9562 315.348 41.4989 313.439 39.6416 311.1C37.7836 308.76 36.533 305.408 38.044 302.832C39.5176 300.316 43.0922 299.729 45.8122 300.776C48.5336 301.823 50.5789 304.081 52.4589 306.309C62.2002 317.855 70.4256 330.679 76.8576 344.347C79.8069 350.613 82.4389 357.152 86.8469 362.492C90.2709 366.641 94.6376 369.9 99.0816 372.933C108.887 379.625 119.414 385.479 130.839 388.7C142.264 391.92 154.694 392.379 165.898 388.455C169.976 387.027 174.04 384.875 176.38 381.24C179.342 376.644 178.911 370.483 176.59 365.532Z" fill="#B71F32"/>
<path d="M93.1677 151.121C87.0237 151.121 82.585 148.74 80.3317 144.233C76.573 136.717 77.109 128.661 81.881 120.94C88.793 109.755 103.973 101.32 117.19 101.32C126.633 101.32 134 105.536 137.929 113.189C139.742 116.721 139.15 121.129 136.214 125.939C128.454 138.647 107.132 151.121 93.1677 151.121ZM165.489 170.981C154.35 165.331 144.353 157.444 136.265 147.927C133.854 145.089 131.53 141.035 133.537 137.897C135.474 134.871 139.892 135.116 143.209 133.732C147.065 132.123 149.488 128.056 150.102 123.921C150.717 119.788 149.788 115.58 148.54 111.592C145.229 101.009 138.71 90.388 128.197 86.8667C123.416 85.2654 118.273 85.2907 113.248 84.876C98.1584 83.6307 83.7677 78.3267 69.649 72.7694C58.6944 83.924 48.8584 96.176 40.3184 109.347C53.2904 124.904 62.9664 143.415 78.153 156.852C81.4037 159.728 84.9824 162.397 89.1384 163.648C94.341 165.213 99.913 164.419 105.346 164.307C123.75 163.923 141.348 171.504 157.649 180.056C160.213 181.4 162.905 182.809 165.798 182.759C168.693 182.709 171.774 180.608 171.798 177.713C171.826 174.461 168.389 172.452 165.489 170.981Z" fill="#B71F32"/>
<path d="M321.74 200.888C320.748 208.565 313.121 213.525 302.309 213.525C302.309 213.525 302.309 213.525 302.308 213.525C291.835 213.525 280.704 208.648 280.704 199.611C280.704 189.627 290.535 185.159 300.276 185.159C308.069 185.159 315.232 187.797 318.969 192.048C321.2 194.585 322.157 197.643 321.74 200.888ZM249.113 257.696C224.931 257.696 198.224 247.992 197.244 232.315C196.815 225.449 198.881 219.537 203.388 214.74C210.476 207.197 223.507 202.869 239.143 202.869C257.405 202.869 274.877 208.755 283.653 217.86C288.14 222.517 290.308 227.8 290.093 233.561C289.435 251.355 268.492 257.696 249.113 257.696ZM327.507 210.348C332.171 203.812 332.849 194.227 327.944 187.869C322.812 181.219 313.524 179.632 305.133 179.248C296.48 178.851 287.311 179.341 280.015 184.008C275.699 186.769 272.255 190.869 267.592 192.989C261.784 195.633 255.08 194.797 248.715 194.333C238.081 193.559 227.249 193.993 217.007 196.951C209.221 199.197 201.691 203.019 196.313 209.08C190.936 215.141 187.98 223.667 189.833 231.555C190.944 236.285 193.652 240.489 196.712 244.263C204.189 253.483 214.179 260.777 225.487 264.389C231.681 266.368 238.168 267.233 244.615 268.091C249.257 268.708 253.923 269.327 258.607 269.221C265.177 269.076 271.628 267.512 277.976 265.811C283.712 264.273 289.529 262.565 294.421 259.199C299.313 255.832 303.205 250.491 303.369 244.555C303.424 242.599 303.079 240.647 303.157 238.692C303.416 232.291 308.101 226.953 313.101 222.949C318.101 218.945 323.785 215.561 327.507 210.348Z" fill="#B71F32"/>
<path d="M258.629 70.7267C264.384 61.9853 275.189 57.1733 289.05 57.1733C309.776 57.1733 332.105 67.764 339.882 81.284C343.934 88.3253 343.928 95.7427 339.862 102.735C334.492 111.971 323.632 117.06 309.29 117.06C309.289 117.06 309.29 117.06 309.289 117.06C288.121 117.06 264.892 105.908 257.506 92.204C253.674 85.088 254.061 77.6613 258.629 70.7267ZM262.402 106.065C265.66 108.249 269.338 109.765 272.988 111.264C283.33 115.513 293.774 119.793 304.824 121.775C310.021 122.707 315.418 123.115 320.566 121.957C326.429 120.64 331.61 117.384 336.457 113.935C340.134 111.319 343.784 108.465 346.086 104.656C350.92 96.66 348.606 86.08 342.996 78.572C337.384 71.064 329.058 65.9533 320.941 61.0267C317.201 58.7573 313.417 56.468 309.229 55.1107C305.516 53.9067 301.586 53.472 297.685 53.128C288.644 52.3293 279.362 51.9987 270.649 54.464C261.937 56.928 253.778 62.62 250.56 70.8213C249.142 74.432 248.733 78.3666 248.996 82.2213C249.632 91.5573 254.446 100.729 262.402 106.065Z" fill="#B71F32"/>
<path d="M221.642 379.92C217.91 384.273 212.985 386.575 207.394 386.575C207.394 386.575 207.394 386.575 207.393 386.575C199.989 386.573 192.137 382.36 187.858 376.089C184.733 371.511 183.973 366.535 185.718 362.077C187.712 356.981 192.492 354.175 199.178 354.175C209.084 354.175 220.28 360.325 223.629 367.607C224.994 370.575 225.757 375.119 221.642 379.92ZM225.418 362.291C220.474 357.013 214.265 352.789 207.289 350.885C200.313 348.981 192.552 349.54 186.262 353.107C183.881 354.456 181.67 356.292 180.478 358.755C178.281 363.293 179.989 368.68 181.864 373.361C182.87 375.877 183.934 378.401 185.526 380.595C190.617 387.613 199.885 389.893 208.369 391.684C210.87 392.211 213.4 392.741 215.956 392.676C221.09 392.544 226.096 389.84 229.022 385.619C231.948 381.396 232.722 375.76 231.044 370.905C229.914 367.64 227.781 364.812 225.418 362.291Z" fill="#B71F32"/>
<path d="M174.184 458.904C176.483 457.8 178.755 456.639 180.968 455.355C184.648 453.22 188.671 449.813 187.892 445.631C187.464 443.331 185.596 441.528 183.518 440.453C179.322 438.285 174.308 438.544 169.642 439.267C164.975 439.989 160.27 441.124 155.584 440.529C150.9 439.933 146.104 437.092 144.919 432.52C144.591 431.26 144.526 429.868 143.742 428.829C142.603 427.323 140.44 427.144 138.552 427.177C129.996 427.332 121.484 429.213 113.631 432.611C132.246 444.096 152.588 453.024 174.184 458.904Z" fill="#B71F32"/>
<path d="M421.801 372.409C415.709 373.668 409.951 376.555 405.364 380.764C404.545 381.515 403.703 382.451 403.764 383.561C403.872 385.54 406.476 386.155 408.457 386.149C409.273 386.148 410.088 386.117 410.903 386.095C414.703 381.673 418.337 377.109 421.801 372.409Z" fill="#B71F32"/>
<path d="M263.907 325.696C273.445 325.595 282.896 324.316 292.112 322.556C295.533 321.903 299.068 321.128 301.641 319.389C304.215 317.651 305.483 314.664 303.581 312.531C302.129 310.901 299.335 310.201 296.719 309.713C288.107 308.104 279.101 307.576 270.237 308.16C268.401 308.28 266.484 308.472 264.992 309.247C263.501 310.02 262.628 311.559 263.548 312.699C263.831 313.051 264.259 313.341 264.465 313.719C265.009 314.713 263.803 315.759 262.527 316.315C258.221 318.189 252.293 317.692 248.459 320.029C247.849 320.401 247.283 320.895 247.292 321.467C247.303 322.085 247.977 322.588 248.657 322.973C252.848 325.344 258.56 325.753 263.907 325.696Z" fill="#B71F32"/>
<path d="M368.343 146.608C362.964 146.32 357.037 146.265 352.876 149.687C351.632 150.709 350.571 152.125 350.524 153.735C350.456 156.076 352.56 157.972 354.78 158.72C357 159.467 359.403 159.413 361.701 159.869C365.617 160.647 369.067 162.86 372.583 164.751C383.465 170.607 395.844 173.656 408.201 173.524C408.668 172.617 408.812 171.548 408.601 170.551C404.484 168.219 399.961 166.605 395.297 165.804C392.764 165.369 390.063 165.123 387.991 163.601C385.919 162.081 384.96 158.7 386.851 156.959C387.507 156.355 388.431 156.005 388.856 155.223C389.607 153.843 388.341 152.232 387.063 151.32C381.751 147.529 374.86 146.957 368.343 146.608Z" fill="#B71F32"/>
<path d="M33.2934 205.944C24.4752 199.179 16.6095 191.305 9.0319 183.153C5.28617 199.424 3.25177 216.339 3.14551 233.707C9.55537 240.703 16.8747 246.849 25.9532 249.021C28.6362 249.664 32.2919 249.396 33.071 246.749C34.1715 243.011 27.9434 239.9 29.2575 236.231C30.2346 233.504 34.0747 233.744 36.959 234.017C41.3615 234.433 45.8695 233.665 49.8855 231.815C50.9282 231.333 51.9828 230.741 52.6002 229.772C53.7508 227.969 52.9988 225.579 51.9802 223.699C47.8495 216.081 40.1682 211.217 33.2934 205.944Z" fill="#B71F32"/>
<path d="M160.999 298.041C164.7 299.379 168.772 300.196 172.561 299.133C176.349 298.069 179.696 294.691 179.66 290.756C179.62 286.196 175.371 282.807 171.157 281.065C166.944 279.323 162.237 278.416 158.761 275.465C152.661 270.285 152.633 261.136 150.864 253.332C146.184 232.699 124.341 217.524 103.372 220.339C100.255 220.757 96.6785 221.967 95.7598 224.975C94.4785 229.168 99.2319 232.545 103.252 234.293C112.683 238.395 123.6 243.521 125.705 253.587C126.76 258.631 125.249 263.943 126.284 268.989C127.839 276.561 134.6 281.765 140.887 286.265C147.225 290.801 153.668 295.393 160.999 298.041Z" fill="#E14347"/>
<path d="M378.263 270.088C395.035 266.041 411.189 259.452 426.005 250.612C429.685 248.416 433.351 246.023 436.041 242.684C447.012 229.067 434.639 219.293 421.753 214.9C415.571 212.791 408.391 210.936 401.809 210.909C395.453 210.884 380.911 215.789 389.056 224.113C389.724 224.796 390.548 225.317 391.188 226.027C393.321 228.389 392.821 232.252 391.012 234.869C389.201 237.488 386.399 239.205 383.793 241.033C378.184 244.973 373.169 249.756 368.969 255.173C365.979 259.033 363.452 264.74 366.617 268.457C369.3 271.608 374.241 271.059 378.263 270.088Z" fill="#E14347"/>
<path d="M194.513 140.905C219.404 154.14 247.86 160.595 276.025 159.393C276.792 159.36 277.569 159.32 278.293 159.068C281.891 157.813 281.72 152.191 278.955 149.571C276.189 146.949 272.159 146.336 268.512 145.236C265.603 144.359 262.809 143.103 260.223 141.508C259.309 140.945 258.393 140.309 257.843 139.389C256.58 137.277 257.777 134.389 259.785 132.964C262.671 130.916 271.877 130.757 265.637 124.98C264.249 123.696 262.4 123.053 260.6 122.476C253.047 120.049 245.328 118.144 237.515 116.771C235.091 116.345 217.679 114.76 224.635 123.157C220.428 125.927 214.956 125.58 209.967 124.899C204.976 124.216 199.703 123.335 195.055 125.275C190.407 127.215 187.117 133.296 189.984 137.437C191.077 139.017 192.817 140.004 194.513 140.905Z" fill="#E14347"/>
<path d="M178.675 47.592C184.951 56.6667 196.636 61.664 207.532 59.9347C208.231 59.824 208.985 59.6534 209.428 59.1027C210.189 58.1547 209.571 56.7254 208.741 55.8347C206.693 53.636 203.659 52.7254 200.999 51.3267C198.34 49.9267 195.74 47.4627 195.976 44.4667C196.173 41.952 198.337 40.0147 200.621 38.944C202.905 37.8734 205.44 37.3827 207.664 36.1947C208.916 35.5254 210.181 34.348 209.972 32.9454C209.881 32.3347 209.517 31.8027 209.135 31.3173C203.529 24.2053 193.263 23.26 184.205 23.1827C182.52 23.1694 180.803 23.1694 179.196 23.6774C175.609 24.8147 173.204 28.3494 172.355 32.0147C171.504 35.6787 176.535 44.4974 178.675 47.592Z" fill="#E14347"/>
<path d="M330.501 43.3227C330.28 47.6133 334.293 50.8067 337.996 52.9853C343.934 56.476 351.19 59.46 357.524 56.7533C356.726 52.06 353.345 48.1253 349.337 45.556C345.329 42.9867 340.702 41.5827 336.144 40.2107C334.905 39.8374 333.528 39.472 332.361 40.0294C331.166 40.6 330.57 42 330.501 43.3227Z" fill="#E14347"/>
<path d="M358.266 409.415C359.663 407.612 360.919 405.46 360.666 403.193C360.348 400.34 357.65 398.225 354.843 397.615C352.038 397.004 349.127 397.561 346.3 398.069C340.14 399.176 333.846 400.051 327.636 399.272C318.515 398.127 309.58 393.24 300.226 394.415C291.919 395.459 283.844 398.412 276.594 402.557C273.126 404.539 260.735 412.728 271.65 415.157C276.258 416.184 282.887 412.056 287.484 411.295C295.663 409.94 304.012 409.62 312.271 410.344C315.532 410.631 319.088 411.237 321.224 413.719C322.814 415.563 323.359 418.191 325.155 419.835C326.77 421.315 329.09 421.712 331.276 421.82C341.556 422.329 351.959 417.548 358.266 409.415Z" fill="#E14347"/>
<path d="M281.877 358.377C275.329 359.055 269.277 363.369 266.502 369.337C266.108 370.187 265.78 371.199 266.21 372.029C266.677 372.931 267.816 373.211 268.821 373.353C273.68 374.047 278.672 373.799 283.44 372.629C287.604 371.608 292.313 368.827 292.062 364.547C291.804 360.108 286.3 357.92 281.877 358.377Z" fill="#E14347"/>
<path d="M394.849 201.711C391.528 199.993 388.507 201.304 385.3 202.712C381.843 204.231 378.693 206.267 376.308 209.217C375.444 210.287 376.224 211.908 377.676 211.568C380.765 210.845 383.799 209.931 386.891 209.208C389.989 208.484 393.033 208.757 395.456 206.413C396.793 205.12 396.559 202.593 394.849 201.711Z" fill="#E14347"/>
<path d="M409.562 200.745C408.759 200.409 408.059 200.22 407.18 200.191C406.34 200.161 405.507 200.164 404.667 200.176C402.286 200.209 401.867 203.579 404.114 204.268C404.802 204.48 405.487 204.693 406.186 204.871C407.156 205.119 407.98 205.196 408.975 205.083C409.98 204.967 410.803 204.489 411.103 203.461C411.159 203.272 411.183 203.072 411.183 202.875C411.18 201.795 410.486 201.135 409.562 200.745Z" fill="#E14347"/>
<path d="M158.224 310.843C154.482 308.924 150.445 307.88 146.712 305.987C142.998 304.104 140.196 301.016 136.684 298.867C135.318 298.032 133.644 299.399 134.045 300.896C136.328 309.425 148.029 317.377 156.686 316.52C159.444 316.248 161.169 312.353 158.224 310.843Z" fill="#E14347"/>
<path d="M175.129 314.767C173.958 314.436 172.801 314.201 171.589 314.081C170.472 313.972 169.118 314.329 167.998 314.443C165.444 314.7 165.461 318.125 167.998 318.401C169.196 318.531 170.392 318.661 171.589 318.791C172.69 318.911 174.076 318.419 175.129 318.131C176.805 317.673 176.786 315.233 175.129 314.767Z" fill="#E14347"/>
<path d="M127.977 203.864C124.519 202.895 121.103 202.243 117.716 203.843C116.325 204.499 116.645 206.391 117.716 207.125C120.611 209.109 124.02 208.947 127.34 208.569C129.904 208.279 130.749 204.641 127.977 203.864Z" fill="#E14347"/>
<path d="M215.955 101.897C214.298 101.051 212.834 100.841 210.986 101.067C209.35 101.267 207.835 101.501 206.259 101.987C205.063 102.356 204.596 104.231 205.886 104.843C208.738 106.197 212.23 107.571 215.351 106.515C217.286 105.86 218.028 102.957 215.955 101.897Z" fill="#E14347"/>
<path d="M227.749 106.04C227.264 105.844 226.784 105.623 226.284 105.471C225.716 105.299 225.058 105.269 224.473 105.172C223.564 105.023 222.654 105.396 222.39 106.355C222.156 107.209 222.672 108.239 223.573 108.437C224.168 108.568 224.762 108.699 225.357 108.831C226.006 108.973 226.701 108.909 227.361 108.905C228.01 108.9 228.594 108.464 228.768 107.835C228.997 107 228.485 106.34 227.749 106.04Z" fill="#E14347"/>
<path d="M215.62 21.3054C212.668 17.872 207.671 16.948 203.334 17.312C201.436 17.4707 201.236 19.7827 202.904 20.4827C206.419 21.9574 209.702 24.1573 213.391 25.136C215.72 25.7533 217.074 22.9947 215.62 21.3054Z" fill="#E14347"/>
<path d="M228.121 27.576C226.275 26.6307 224.432 25.8907 222.477 25.1933C221.555 24.864 220.512 25.5574 220.267 26.448C219.987 27.4694 220.612 28.3 221.523 28.6587C223.315 29.364 225.048 29.9667 226.917 30.4333C228.595 30.8507 229.741 28.4067 228.121 27.576Z" fill="#E14347"/>
<path d="M343.466 428.124C340.748 429.196 338.26 430.172 335.657 431.505C332.773 432.983 329.526 433.62 326.556 434.896C325.269 435.451 325.762 437.373 326.922 437.705C330.253 438.657 333.604 438.131 336.913 437.345C340.692 436.449 343.165 434.901 345.746 432.041C347.176 430.457 345.813 427.199 343.466 428.124Z" fill="#E14347"/>
<path d="M360.29 417.479C357.75 417.976 355.451 419.043 353.099 420.101C351.13 420.987 352.539 424.264 354.564 423.575C357.002 422.747 359.402 421.939 361.594 420.572C363.275 419.524 362.15 417.115 360.29 417.479Z" fill="#E14347"/>
<path d="M285.455 345.576C282.26 343.764 279.116 343.991 275.891 345.599C274.206 346.44 275.486 348.653 277.075 348.408C279.488 348.035 282.243 348.244 284.667 348.488C286.26 348.649 286.735 346.303 285.455 345.576Z" fill="#E14347"/>
<path d="M375.334 377.483C373.22 377.316 371.334 377.787 369.334 378.437C367.556 379.016 365.886 379.489 364.412 380.672C363.615 381.312 364.13 382.597 364.987 382.848C366.872 383.4 368.794 383.079 370.718 382.923C372.768 382.757 374.564 382.355 376.398 381.413C378.41 380.381 377.27 377.636 375.334 377.483Z" fill="#CC2B39"/>
<path d="M76.7097 381.153C74.5203 378.037 71.7697 375.829 68.8484 373.419C66.179 371.216 63.275 368.356 60.075 366.985C58.7297 366.409 57.3283 367.601 58.0443 369.016C59.6257 372.14 62.6017 374.748 64.9617 377.304C67.5137 380.067 69.9524 382.72 73.183 384.681C75.3017 385.968 78.231 383.32 76.7097 381.153Z" fill="#CC2B39"/>
<path d="M92.4749 396.451C90.4322 394.535 87.9762 393.42 85.4949 392.176C83.5842 391.219 82.1216 393.793 83.8389 395.009C86.1109 396.619 88.2456 398.247 90.9042 399.149C92.4442 399.673 93.6282 397.533 92.4749 396.451Z" fill="#CC2B39"/>
<path d="M305.711 165.087C303.843 163.869 301.856 163.239 299.705 162.713C297.717 162.228 295.059 161.596 293.073 162.245C292.152 162.547 291.98 163.539 292.544 164.248C293.804 165.835 295.992 166.452 297.791 167.256C299.989 168.237 302.291 168.801 304.699 168.824C306.769 168.843 307.335 166.145 305.711 165.087Z" fill="#CC2B39"/>
<path d="M321.192 172.027C320.369 171.581 319.545 171.136 318.721 170.691C317.783 170.184 316.719 169.897 315.715 169.545C313.944 168.924 313.276 171.637 314.952 172.307C315.824 172.655 316.704 173.095 317.62 173.305C318.543 173.516 319.467 173.721 320.389 173.931C321.511 174.184 322.267 172.608 321.192 172.027Z" fill="#CC2B39"/>
<path d="M224.364 91.2467C223.021 90.08 221.662 88.7987 220.601 87.3667C219.324 85.6427 218.704 83.8787 217.916 81.9187C217.501 80.8853 215.701 80.5333 215.454 81.9187C214.56 86.9467 218.166 92.2693 222.918 93.728C224.3 94.152 225.497 92.232 224.364 91.2467Z" fill="#CC2B39"/>
<path d="M160.688 221.747C159.691 217.689 157.639 214.211 155.603 210.601C153.679 207.188 151.878 203.419 149.119 200.604C148.174 199.64 146.919 200.671 147.072 201.795C147.654 206.044 149.831 210.189 151.475 214.128C152.951 217.665 154.435 220.971 156.815 224.003C158.338 225.94 161.198 223.815 160.688 221.747Z" fill="#CC2B39"/>
<path d="M169.673 242.519C169.129 241.011 168.568 239.447 167.649 238.121C166.7 236.751 165.649 235.52 164.544 234.273C162.81 232.323 160.048 234.803 161.108 236.924C162.548 239.805 164.117 242.188 166.538 244.343C167.832 245.493 170.354 244.411 169.673 242.519Z" fill="#CC2B39"/>
<path d="M63.5959 165.993C61.7359 164.885 59.8986 163.733 58.0893 162.545C55.9986 161.172 54.3653 159.356 52.4279 157.823C51.3306 156.955 49.1493 157.705 49.7733 159.368C51.6653 164.42 56.9853 168.393 62.1906 169.325C64.1613 169.679 65.4586 167.104 63.5959 165.993Z" fill="#CC2B39"/>
<path d="M199.36 187.828C197.39 184.889 194.125 183.348 191.128 181.627C188.754 180.265 186.062 183.568 188.161 185.472C190.694 187.771 193.194 190.503 196.566 191.461C198.569 192.032 200.593 189.668 199.36 187.828Z" fill="#B71F32"/>
<path d="M55.8014 247.071C53.1827 244.641 49.272 241.976 45.48 242.388C43.8747 242.563 42.58 244.18 43.5453 245.757C45.544 249.023 49.8147 250.615 53.3947 251.205C55.6467 251.577 57.784 248.909 55.8014 247.071Z" fill="#B71F32"/>
<path d="M338.737 353.433C336.772 353.927 334.925 354.317 333.16 355.349C331.437 356.356 329.368 357.531 328.359 359.3C327.579 360.665 328.609 361.993 330 362.16C331.828 362.38 333.8 361.504 335.46 360.804C337.58 359.909 339.139 358.615 340.917 357.176C342.756 355.689 340.755 352.927 338.737 353.433Z" fill="#B71F32"/>
<path d="M351.754 357.38C351.305 357.701 350.982 357.852 350.494 357.973C350.405 357.996 349.841 358.093 349.837 358.107C349.653 358.107 349.012 358.049 349.262 358.096C348.064 357.872 346.852 358.409 346.508 359.66C346.101 361.137 347.23 362.397 348.666 362.495C350.949 362.649 352.85 361.607 354.177 359.803C355.218 358.387 353.169 356.369 351.754 357.38Z" fill="#B71F32"/>
<path d="M275.908 12.904C273.507 12.4267 271.101 12.1641 268.68 11.7961C265.892 11.3721 263.28 10.336 260.557 9.67868C258.387 9.15468 257.533 11.8307 259.132 13.0574C263.643 16.5187 270.369 18.0867 275.908 17.072C277.996 16.6907 277.963 13.312 275.908 12.904Z" fill="#B71F32"/>
<path d="M294.402 15.1907C293.634 14.4054 292.799 13.5574 291.85 12.9854C290.894 12.4094 289.872 11.9321 288.88 11.4187C286.84 10.3641 285.344 13.1121 287.119 14.4321C288.019 15.1014 288.9 15.8121 289.84 16.4214C290.764 17.0214 291.895 17.3721 292.932 17.7161C294.412 18.2067 295.418 16.2334 294.402 15.1907Z" fill="#B71F32"/>
<path d="M162.663 78.3587C159.468 74.8733 155.079 71.1147 150.363 69.9547C148.794 69.5693 147.308 71.2827 148.216 72.748C150.775 76.8734 155.646 79.9093 159.95 81.876C162.223 82.9147 164.456 80.3147 162.663 78.3587Z" fill="#B71F32"/>
<path d="M175.747 84.5374C175.124 83.9574 174.488 83.5534 173.694 83.2467C173.331 83.1054 172.751 83.1374 172.352 83.1014C172.01 83.072 171.668 83.0414 171.326 83.0107C170.471 82.936 169.658 83.6627 169.443 84.4454C169.154 85.4987 169.791 86.5307 170.807 86.848C171.388 87.0294 171.97 87.2107 172.55 87.392C173.339 87.6387 174.319 87.3854 175.07 87.1054C176.094 86.7227 176.659 85.3854 175.747 84.5374Z" fill="#B71F32"/>
<path d="M398.062 253.467C395.611 253.22 393.314 254.484 391.111 255.424C388.712 256.451 386.338 257.463 384.028 258.679C382.767 259.341 383.271 261.691 384.79 261.492C387.246 261.172 389.642 260.712 392.064 260.201C394.771 259.629 397.556 259.281 399.7 257.424C401.384 255.964 399.874 253.649 398.062 253.467Z" fill="#D63B3F"/>
<path d="M420.274 244.483C420.059 243.7 419.416 243.353 418.667 243.26C417.82 243.153 417.142 243.143 416.304 243.361C415.604 243.544 414.903 243.727 414.203 243.911C412.331 244.4 412.674 247.487 414.667 247.337C415.384 247.284 416.103 247.229 416.82 247.176C417.312 247.139 417.794 247.125 418.259 246.947C418.688 246.781 419.095 246.568 419.508 246.365C420.172 246.039 420.462 245.163 420.274 244.483Z" fill="#D63B3F"/>
<path d="M127.907 239.736C123.874 236.599 119.402 233.465 114.348 232.216C112.846 231.844 111.783 233.661 112.854 234.784C116.447 238.552 121.382 240.881 126.107 242.827C127.786 243.516 129.339 240.851 127.907 239.736Z" fill="#D63B3F"/>
<path d="M140.435 253.615C140.133 253.088 139.831 252.56 139.529 252.032C138.961 251.04 137.549 250.872 136.748 251.673C135.945 252.476 136.113 253.887 137.107 254.455C137.633 254.757 138.161 255.059 138.689 255.361C139.804 255.999 141.073 254.729 140.435 253.615Z" fill="#D63B3F"/>
<path d="M165.052 283.127C162.983 281.971 160.947 281.149 158.651 280.565C157.359 280.237 155.999 280.971 155.64 282.276C155.252 283.684 156.119 284.775 157.35 285.287C159.371 286.127 161.276 286.64 163.447 286.935C164.391 287.063 165.28 286.864 165.799 285.977C166.364 285.012 166.042 283.68 165.052 283.127Z" fill="#D63B3F"/>
<path d="M347.824 406.243C344.115 405.511 340.41 406.86 336.85 407.792C334.92 408.297 335.312 411.315 337.32 411.269C340.982 411.189 344.934 411.481 348.284 409.765C349.724 409.028 349.444 406.563 347.824 406.243Z" fill="#D63B3F"/>
<path d="M237.964 145.936C235.459 145.112 232.877 144.64 230.341 143.932C227.741 143.208 225.293 141.575 222.593 141.407C221.613 141.345 220.667 142.497 221.037 143.451C223.279 149.216 232.46 151.767 237.964 150.507C240.371 149.956 240.079 146.632 237.964 145.936Z" fill="#D63B3F"/>
<path d="M254.201 149.441C252.759 148.624 251.055 148.564 249.495 149.093C247.685 149.707 247.685 152.145 249.495 152.759C251.055 153.288 252.759 153.228 254.201 152.409C255.317 151.777 255.317 150.075 254.201 149.441Z" fill="#D63B3F"/>
<path d="M421.97 147.584C419.644 147.636 416.973 147.325 414.876 148.493C413.598 149.205 413.504 150.911 414.433 151.929C415.91 153.547 418.337 154.053 420.334 154.772C422.929 155.707 426.785 156.053 427.722 152.645C428.686 149.14 424.766 147.521 421.97 147.584Z" fill="#CC2B39"/>
<path d="M400.88 124.753C400.132 124.216 399.429 123.875 398.553 123.584C397.654 123.284 396.476 123.019 395.564 123.344C394.62 123.68 393.961 124.813 394.584 125.755C395.689 127.427 398.129 127.967 400 128.004C401.865 128.041 402.208 125.705 400.88 124.753Z" fill="#CC2B39"/>
<path d="M404.843 92.7493C403.403 91.632 402.167 90.98 400.346 90.712C398.474 90.4373 396.671 90.7173 394.891 91.3186C393.044 91.9426 393.476 94.4106 395.334 94.5933C397.856 94.84 400.31 95.752 402.766 96.3186C404.654 96.7546 406.656 94.156 404.843 92.7493Z" fill="#CC2B39"/>
<path d="M66.6249 106.757C65.5036 106.436 64.5956 105.951 63.4929 105.607C62.6622 105.348 61.8209 104.583 60.9662 104.179C58.9849 103.244 57.2116 104.753 57.5156 106.832C57.7956 108.743 59.5396 110.288 61.1569 111.149C63.1116 112.189 65.2676 111.999 67.1782 110.993C68.9996 110.035 68.4822 107.291 66.6249 106.757Z" fill="#CC2B39"/>
<path d="M94.3613 93.8987C90.516 90.7627 85.8013 89.372 81.1787 87.7347C79.02 86.9694 77.96 90.104 79.6933 91.2573C83.592 93.8493 87.424 96.7667 92.0293 97.9027C94.1893 98.436 96.324 95.5 94.3613 93.8987Z" fill="#CC2B39"/>
<path d="M113.756 91.3947C112.506 91.104 111.274 90.9814 110 90.8694C108.881 90.7694 107.942 91.8787 107.942 92.9267C107.942 93.9734 108.881 95.0813 110 94.984C111.274 94.8707 112.506 94.748 113.756 94.4573C115.276 94.1053 115.276 91.7467 113.756 91.3947Z" fill="#CC2B39"/>
<path d="M72.0743 306.415C70.3396 303.816 68.3116 301.685 66.0036 299.588C63.797 297.583 61.2009 295.057 58.3436 294.085C57.1729 293.687 55.8916 294.963 56.2929 296.135C57.2036 298.791 59.4303 300.932 61.1756 303.084C63.3103 305.713 65.8396 307.969 68.653 309.836C70.7196 311.207 73.4543 308.484 72.0743 306.415Z" fill="#CC2B39"/>
<path d="M82.2737 320.483C81.9257 319.169 80.935 318.487 79.9564 317.637C78.1764 316.093 75.8337 318.436 77.3777 320.215C78.2284 321.195 78.911 322.185 80.2244 322.533C81.4577 322.86 82.6017 321.717 82.2737 320.483Z" fill="#CC2B39"/>
<path d="M70.8842 281.376C69.7522 279.913 68.2575 278.727 66.5655 277.959C65.6495 277.543 64.3255 278.472 65.0335 279.491C66.1575 281.109 67.6202 282.437 69.3695 283.339C70.7042 284.027 71.7295 282.468 70.8842 281.376Z" fill="#CC2B39"/>
<path d="M450.861 290.731C449.977 289.847 448.703 289.971 447.805 290.731C446.977 291.432 446.14 292.12 445.356 292.871C444.331 293.853 443.656 294.996 443.224 296.344C442.6 298.293 444.823 299.623 446.437 298.815C448.728 297.668 449.913 295.453 451.2 293.351C451.705 292.524 451.539 291.408 450.861 290.731Z" fill="#CC2B39"/>
<path d="M24.1768 207.416C21.6846 204.575 18.0398 202.911 14.5404 201.633C12.6024 200.927 11.132 203.684 12.5638 205.029C15.2825 207.583 18.4409 210.044 22.0992 210.985C24.2518 211.539 25.5601 208.993 24.1768 207.416Z" fill="#CC2B39"/>
</svg>
