<svg width="990" height="493" viewBox="0 0 990 493" fill="none" xmlns="http://www.w3.org/2000/svg">
<path d="M62.0703 205.372V225.062H25.249V198.021L0 184.107C18.7614 179.031 28.1421 170.368 28.1421 158.116C28.1421 153.04 26.7393 147.965 23.9339 142.889C21.1285 137.814 17.9723 133.526 14.4655 130.025C11.1341 126.35 8.06564 121.974 5.2602 116.898C2.45476 111.648 1.05204 106.485 1.05204 101.409C1.05204 94.9332 3.59447 88.1073 8.67933 80.9314C13.7642 73.7555 19.2874 68.5923 25.249 65.442V38.9261H62.0703V63.6042L89.4234 80.1438C75.3962 88.3698 68.3826 97.7335 68.3826 108.235C68.3826 111.56 69.6976 115.323 72.3277 119.524C75.1332 123.724 78.1139 127.662 81.2701 131.338C84.6015 134.838 87.5823 139.476 90.2124 145.252C93.0178 151.028 94.4205 156.891 94.4205 162.842C94.4205 180.694 83.6371 194.871 62.0703 205.372Z" fill="black"/>
<path d="M292.607 225.062H195.819C182.143 225.062 171.885 223.312 165.047 219.811C157.157 215.786 148.302 208.96 138.483 199.334C128.839 189.533 121.037 180.256 115.075 171.505C107.535 160.829 103.766 149.365 103.766 137.113C103.766 129.588 105.694 122.237 109.552 115.061C131.645 74.6306 171.359 46.277 228.695 30L262.887 80.1438C250.963 84.8694 241.232 88.8949 233.693 92.2203C226.328 95.3707 217.737 100.009 207.918 106.135C198.099 112.26 190.033 118.736 183.721 125.562C181.091 128.537 179.775 131.338 179.775 133.963C179.775 140.264 184.334 146.827 193.452 153.653C202.57 160.479 211.161 163.892 219.227 163.892H221.594V109.285L291.818 128.975C289.538 143.327 288.399 158.379 288.399 174.131C288.399 188.132 289.801 205.11 292.607 225.062Z" fill="black"/>
<path d="M443.813 88.5449C430.662 86.4446 417.336 85.3945 403.835 85.3945C394.367 85.3945 385.863 85.7445 378.323 86.4446C378.148 91.3452 378.06 98.6086 378.06 108.235C385.951 108.76 393.841 109.022 401.731 109.022C415.408 109.022 429.084 107.972 442.761 105.872L431.714 155.491H377.797C377.797 157.941 377.885 161.617 378.06 166.517C378.236 171.418 378.323 175.093 378.323 177.544C386.214 178.069 394.104 178.331 401.994 178.331C415.671 178.331 429.347 177.281 443.024 175.181L431.977 225.062H302.05C303.278 196.183 303.891 165.117 303.891 131.863C303.891 106.135 303.278 75.1557 302.05 38.9261H432.766L443.813 88.5449Z" fill="black"/>
<path d="M589.835 170.718L563.271 229C550.295 226.9 537.496 223.312 524.871 218.236C512.422 212.985 500.762 206.422 489.891 198.546C479.02 190.495 470.165 180.606 463.327 168.88C456.664 156.978 453.332 144.202 453.332 130.55C453.332 117.599 456.401 105.434 462.538 94.0581C468.85 82.5066 477.091 72.7929 487.261 64.9169C497.43 56.8659 508.389 50.215 520.137 44.9644C532.06 39.5387 544.246 35.6007 556.695 33.1504L589.309 87.2322C576.859 89.8575 565.55 94.7581 555.38 101.934C545.211 109.11 540.126 118.124 540.126 128.975C540.126 139.826 545.298 148.84 555.643 156.016C565.988 163.192 577.385 168.092 589.835 170.718Z" fill="black"/>
<path d="M796.478 210.098L719.679 225.062L675.231 162.317C675.231 171.418 675.844 192.333 677.072 225.062H599.221C601.676 192.858 602.903 161.792 602.903 131.863C602.903 102.109 601.676 71.1302 599.221 38.9261H677.072C676.195 61.679 675.581 87.4947 675.231 116.373L708.633 38.9261L785.432 53.8905L738.616 134.488L796.478 210.098Z" fill="black"/>
<path d="M961.595 63.6042C980.532 79.8813 990 102.634 990 131.863C990 161.091 980.619 183.932 961.858 200.384C943.097 216.836 918.812 225.062 889.004 225.062C859.196 225.062 834.824 216.836 815.888 200.384C797.126 183.932 787.745 161.091 787.745 131.863C787.745 102.634 797.214 79.8813 816.151 63.6042C835.087 47.1522 859.372 38.9261 889.004 38.9261C918.637 38.9261 942.834 47.1522 961.595 63.6042ZM910.045 151.29C916.007 145.339 918.987 138.251 918.987 130.025C918.987 121.799 916.007 114.798 910.045 109.022C904.259 103.072 897.245 100.096 889.004 100.096C880.763 100.096 873.662 103.072 867.7 109.022C861.914 114.798 859.021 121.799 859.021 130.025C859.021 138.251 861.914 145.339 867.7 151.29C873.662 157.066 880.763 159.954 889.004 159.954C897.245 159.954 904.259 157.066 910.045 151.29Z" fill="black"/>
<path d="M62.0703 175.372V195.062H25.249V168.021L0 154.107C18.7614 149.031 28.1421 140.368 28.1421 128.116C28.1421 123.04 26.7393 117.965 23.9339 112.889C21.1285 107.814 17.9723 103.526 14.4655 100.025C11.1341 96.3496 8.06564 91.9741 5.2602 86.8984C2.45476 81.6478 1.05204 76.4846 1.05204 71.409C1.05204 64.9332 3.59447 58.1073 8.67933 50.9314C13.7642 43.7555 19.2874 38.5923 25.249 35.442V8.92612H62.0703V33.6042L89.4234 50.1438C75.3962 58.3698 68.3826 67.7335 68.3826 78.2348C68.3826 81.5602 69.6976 85.3232 72.3277 89.5238C75.1332 93.7243 78.1139 97.6623 81.2701 101.338C84.6015 104.838 87.5823 109.476 90.2124 115.252C93.0178 121.028 94.4205 126.891 94.4205 132.842C94.4205 150.694 83.6371 164.871 62.0703 175.372Z" fill="#D22F41"/>
<path d="M292.607 195.062H195.819C182.143 195.062 171.885 193.312 165.047 189.811C157.157 185.786 148.302 178.96 138.483 169.334C128.839 159.533 121.037 150.256 115.075 141.505C107.535 130.829 103.766 119.365 103.766 107.113C103.766 99.5875 105.694 92.2366 109.552 85.0607C131.645 44.6306 171.359 16.277 228.695 0L262.887 50.1438C250.963 54.8694 241.232 58.8949 233.693 62.2203C226.328 65.3707 217.737 70.0088 207.918 76.1346C198.099 82.2603 190.033 88.7362 183.721 95.562C181.091 98.5374 179.775 101.338 179.775 103.963C179.775 110.264 184.334 116.827 193.452 123.653C202.57 130.479 211.161 133.892 219.227 133.892H221.594V79.285L291.818 98.9749C289.538 113.327 288.399 128.379 288.399 144.131C288.399 158.132 289.801 175.11 292.607 195.062Z" fill="#D22F41"/>
<path d="M443.813 58.5449C430.662 56.4446 417.336 55.3945 403.835 55.3945C394.367 55.3945 385.863 55.7445 378.323 56.4446C378.148 61.3452 378.06 68.6086 378.06 78.2348C385.951 78.7599 393.841 79.0224 401.731 79.0224C415.408 79.0224 429.084 77.9723 442.761 75.872L431.714 125.491H377.797C377.797 127.941 377.885 131.617 378.06 136.517C378.236 141.418 378.323 145.093 378.323 147.544C386.214 148.069 394.104 148.331 401.994 148.331C415.671 148.331 429.347 147.281 443.024 145.181L431.977 195.062H302.05C303.278 166.183 303.891 135.117 303.891 101.863C303.891 76.1346 303.278 45.1557 302.05 8.92612H432.766L443.813 58.5449Z" fill="#D22F41"/>
<path d="M589.835 140.718L563.271 199C550.295 196.9 537.496 193.312 524.871 188.236C512.422 182.985 500.762 176.422 489.891 168.546C479.02 160.495 470.165 150.606 463.327 138.88C456.664 126.978 453.332 114.202 453.332 100.55C453.332 87.5985 456.401 75.4345 462.538 64.0581C468.85 52.5066 477.091 42.7929 487.261 34.9169C497.43 26.8659 508.389 20.215 520.137 14.9644C532.06 9.5387 544.246 5.60071 556.695 3.1504L589.309 57.2322C576.859 59.8575 565.55 64.7581 555.38 71.934C545.211 79.1099 540.126 88.1236 540.126 98.9749C540.126 109.826 545.298 118.84 555.643 126.016C565.988 133.192 577.385 138.092 589.835 140.718Z" fill="#D22F41"/>
<path d="M796.478 180.098L719.679 195.062L675.231 132.317C675.231 141.418 675.844 162.333 677.072 195.062H599.221C601.676 162.858 602.903 131.792 602.903 101.863C602.903 72.1091 601.676 41.1302 599.221 8.92612H677.072C676.195 31.679 675.581 57.4947 675.231 86.3734L708.633 8.92612L785.432 23.8905L738.616 104.488L796.478 180.098Z" fill="#D22F41"/>
<path d="M961.595 33.6042C980.532 49.8813 990 72.6341 990 101.863C990 131.091 980.619 153.932 961.858 170.384C943.097 186.836 918.812 195.062 889.004 195.062C859.196 195.062 834.824 186.836 815.888 170.384C797.126 153.932 787.745 131.091 787.745 101.863C787.745 72.6341 797.214 49.8813 816.151 33.6042C835.087 17.1522 859.372 8.92612 889.004 8.92612C918.637 8.92612 942.834 17.1522 961.595 33.6042ZM910.045 121.29C916.007 115.339 918.987 108.251 918.987 100.025C918.987 91.799 916.007 84.7982 910.045 79.0224C904.259 73.0717 897.245 70.0963 889.004 70.0963C880.763 70.0963 873.662 73.0717 867.7 79.0224C861.914 84.7982 859.021 91.799 859.021 100.025C859.021 108.251 861.914 115.339 867.7 121.29C873.662 127.066 880.763 129.954 889.004 129.954C897.245 129.954 904.259 127.066 910.045 121.29Z" fill="#D22F41"/>
<path d="M61.776 279.968L59.28 291.68C58.512 291.68 57.36 291.584 55.824 291.392C54.288 291.168 53.12 291.056 52.32 291.056C52.288 292.56 52.272 294.816 52.272 297.824C52.272 303.584 52.384 308.976 52.608 314H38.928C39.152 308.976 39.264 303.584 39.264 297.824C39.264 294.848 39.248 292.624 39.216 291.152H38.976C35.424 291.152 32.72 291.408 30.864 291.92L31.824 279.968H61.776ZM93.873 314H81.393C81.553 310.736 81.649 307.488 81.681 304.256H75.729C75.729 307.136 75.809 310.384 75.969 314H63.489C63.713 308.56 63.825 303.904 63.825 300.032C63.825 295.584 63.713 290.256 63.489 284.048H75.969C75.809 287.632 75.729 290.832 75.729 293.648H81.681C81.649 290.48 81.553 287.28 81.393 284.048H93.873C93.649 290.256 93.537 295.584 93.537 300.032C93.537 303.904 93.649 308.56 93.873 314ZM118.35 292.016C116.238 291.696 114.03 291.536 111.726 291.536C110.446 291.536 109.15 291.584 107.838 291.68C107.838 291.968 107.822 292.416 107.79 293.024C107.79 293.6 107.79 294.032 107.79 294.32V295.184C109.038 295.28 110.302 295.328 111.582 295.328C114.014 295.328 116.222 295.152 118.206 294.8L116.43 302.816H107.742C107.742 303.232 107.758 303.824 107.79 304.592C107.822 305.36 107.838 305.952 107.838 306.368C108.99 306.464 110.158 306.512 111.342 306.512C113.55 306.512 115.854 306.336 118.254 305.984L116.478 314H95.5984C95.8224 308.56 95.9344 303.904 95.9344 300.032C95.9344 295.584 95.8224 290.256 95.5984 284.048H116.574L118.35 292.016ZM150.595 313.088L140.083 314.576C139.187 313.584 138.323 312.56 137.491 311.504C136.659 310.416 135.635 309.04 134.419 307.376C133.235 305.712 132.451 304.624 132.067 304.112C132.067 307.088 131.907 310.384 131.587 314H120.643C120.931 311.12 121.075 307.728 121.075 303.824C121.075 298.32 120.739 291.728 120.067 284.048H132.643C138.659 284.048 142.195 284.4 143.251 285.104C147.699 288.016 149.923 290.88 149.923 293.696C149.923 295.168 149.283 296.896 148.003 298.88C146.723 300.832 145.395 302.064 144.019 302.576C145.555 306.736 147.747 310.24 150.595 313.088ZM137.587 295.184C137.587 294.256 135.763 293.072 132.115 291.632C131.987 294.384 131.923 296.448 131.923 297.824V300.464C135.699 298.864 137.587 297.104 137.587 295.184ZM175.069 292.016C172.957 291.696 170.749 291.536 168.445 291.536C167.165 291.536 165.869 291.584 164.557 291.68C164.557 291.968 164.541 292.416 164.509 293.024C164.509 293.6 164.509 294.032 164.509 294.32V295.184C165.757 295.28 167.021 295.328 168.301 295.328C170.733 295.328 172.941 295.152 174.925 294.8L173.149 302.816H164.461C164.461 303.232 164.477 303.824 164.509 304.592C164.541 305.36 164.557 305.952 164.557 306.368C165.709 306.464 166.877 306.512 168.061 306.512C170.269 306.512 172.573 306.336 174.973 305.984L173.197 314H152.317C152.541 308.56 152.653 303.904 152.653 300.032C152.653 295.584 152.541 290.256 152.317 284.048H173.293L175.069 292.016ZM206 314H193.52C193.712 309.008 193.808 304.016 193.808 299.024C193.808 294.032 193.712 289.04 193.52 284.048H206C205.776 290.256 205.664 295.584 205.664 300.032C205.664 303.904 205.776 308.56 206 314ZM217.707 315.296L207.723 309.872C211.563 308.784 213.483 307.024 213.483 304.592C213.483 303.536 213.195 302.496 212.619 301.472C212.043 300.416 211.403 299.52 210.699 298.784C210.027 298.048 209.403 297.152 208.827 296.096C208.251 295.04 207.963 293.968 207.963 292.88C207.963 291.92 208.219 290.96 208.731 290C209.627 288.272 210.779 286.928 212.187 285.968C213.595 285.008 215.387 284.16 217.563 283.424L226.011 288.512C223.163 290.144 221.739 292.048 221.739 294.224C221.739 294.96 222.011 295.776 222.555 296.672C223.131 297.536 223.755 298.336 224.427 299.072C225.099 299.808 225.707 300.768 226.251 301.952C226.827 303.104 227.115 304.304 227.115 305.552C227.115 309.84 223.979 313.088 217.707 315.296ZM268.974 302.48L266.91 314H245.598C245.982 309.2 246.174 304.4 246.174 299.6C246.174 294.416 245.982 289.232 245.598 284.048H258.318C258.062 289.776 257.934 295.168 257.934 300.224C257.934 300.576 257.934 301.12 257.934 301.856C257.966 302.56 257.982 303.088 257.982 303.44C260.83 303.44 264.494 303.12 268.974 302.48ZM283.203 314H270.723C270.915 309.008 271.011 304.016 271.011 299.024C271.011 294.032 270.915 289.04 270.723 284.048H283.203C282.979 290.256 282.867 295.584 282.867 300.032C282.867 303.904 282.979 308.56 283.203 314ZM309.167 292.736C305.615 292.096 301.615 291.776 297.167 291.776C297.103 293.504 297.071 294.8 297.071 295.664H306.767L308.111 305.216C304.815 304.512 301.151 304.16 297.119 304.16C297.119 307.104 297.199 310.384 297.359 314H284.927C285.119 309.008 285.215 304.016 285.215 299.024C285.215 294.032 285.119 289.04 284.927 284.048H307.823L309.167 292.736ZM333.647 292.016C331.535 291.696 329.327 291.536 327.023 291.536C325.743 291.536 324.447 291.584 323.135 291.68C323.135 291.968 323.119 292.416 323.087 293.024C323.087 293.6 323.087 294.032 323.087 294.32V295.184C324.335 295.28 325.599 295.328 326.879 295.328C329.311 295.328 331.519 295.152 333.503 294.8L331.727 302.816H323.039C323.039 303.232 323.055 303.824 323.087 304.592C323.119 305.36 323.135 305.952 323.135 306.368C324.287 306.464 325.455 306.512 326.639 306.512C328.847 306.512 331.151 306.336 333.551 305.984L331.775 314H310.895C311.119 308.56 311.231 303.904 311.231 300.032C311.231 295.584 311.119 290.256 310.895 284.048H331.871L333.647 292.016ZM364.578 314H352.098C352.29 309.008 352.386 304.016 352.386 299.024C352.386 294.032 352.29 289.04 352.098 284.048H364.578C364.354 290.256 364.242 295.584 364.242 300.032C364.242 303.904 364.354 308.56 364.578 314ZM399.326 314H391.118L377.726 300.224C377.726 301.28 377.71 302.848 377.678 304.928C377.646 307.008 377.63 308.56 377.63 309.584C377.63 311.056 377.678 312.528 377.773 314H366.302C366.942 309.168 367.262 304.448 367.262 299.84C367.262 294.304 366.942 289.04 366.302 284.048H374.894L387.374 295.184C387.182 290.192 387.006 286.48 386.846 284.048H399.326C399.006 287.664 398.846 291.456 398.846 295.424C398.846 297.504 398.926 300.608 399.086 304.736C399.246 308.864 399.326 311.952 399.326 314ZM445.754 288.032C448.762 290.656 450.266 294.32 450.266 299.024C450.266 303.728 448.746 307.408 445.706 310.064C442.698 312.688 438.81 314 434.042 314C429.274 314 425.37 312.688 422.33 310.064C419.29 307.408 417.77 303.728 417.77 299.024C417.77 294.32 419.274 290.656 422.282 288.032C425.322 285.376 429.242 284.048 434.042 284.048C438.842 284.048 442.746 285.376 445.754 288.032ZM437.45 302.144C438.41 301.184 438.89 300.032 438.89 298.688C438.89 297.344 438.41 296.208 437.45 295.28C436.522 294.352 435.386 293.888 434.042 293.888C432.73 293.888 431.594 294.368 430.634 295.328C429.706 296.256 429.242 297.376 429.242 298.688C429.242 300.032 429.706 301.184 430.634 302.144C431.562 303.072 432.698 303.536 434.042 303.536C435.386 303.536 436.522 303.072 437.45 302.144ZM483.141 314H472.053C471.829 312.048 471.653 310.672 471.525 309.872C469.797 312.24 468.677 313.696 468.165 314.24C462.245 314.24 456.853 313.104 451.989 310.832C452.949 305.904 453.429 300.912 453.429 295.856C453.429 291.984 453.157 288.048 452.613 284.048H464.853C464.853 292.688 464.293 298.992 463.173 302.96C464.997 304.624 467.301 305.456 470.085 305.456C470.181 305.456 470.357 305.44 470.613 305.408C470.869 305.376 471.045 305.36 471.141 305.36C470.917 301.904 470.805 298.192 470.805 294.224C470.805 290.288 470.885 286.896 471.045 284.048H483.141C482.917 290.256 482.805 295.584 482.805 300.032C482.805 303.904 482.917 308.56 483.141 314ZM515.376 313.088L504.864 314.576C503.968 313.584 503.104 312.56 502.272 311.504C501.44 310.416 500.416 309.04 499.2 307.376C498.016 305.712 497.232 304.624 496.848 304.112C496.848 307.088 496.688 310.384 496.368 314H485.424C485.712 311.12 485.856 307.728 485.856 303.824C485.856 298.32 485.52 291.728 484.848 284.048H497.424C503.44 284.048 506.976 284.4 508.032 285.104C512.48 288.016 514.704 290.88 514.704 293.696C514.704 295.168 514.064 296.896 512.784 298.88C511.504 300.832 510.176 302.064 508.8 302.576C510.336 306.736 512.528 310.24 515.376 313.088ZM502.368 295.184C502.368 294.256 500.544 293.072 496.896 291.632C496.768 294.384 496.704 296.448 496.704 297.824V300.464C500.48 298.864 502.368 297.104 502.368 295.184ZM564.985 314H553.897C553.673 312.048 553.497 310.672 553.369 309.872C551.641 312.24 550.521 313.696 550.009 314.24C544.089 314.24 538.697 313.104 533.833 310.832C534.793 305.904 535.273 300.912 535.273 295.856C535.273 291.984 535.001 288.048 534.457 284.048H546.697C546.697 292.688 546.137 298.992 545.017 302.96C546.841 304.624 549.145 305.456 551.929 305.456C552.025 305.456 552.201 305.44 552.457 305.408C552.713 305.376 552.889 305.36 552.985 305.36C552.761 301.904 552.649 298.192 552.649 294.224C552.649 290.288 552.729 286.896 552.889 284.048H564.985C564.761 290.256 564.649 295.584 564.649 300.032C564.649 303.904 564.761 308.56 564.985 314ZM599.716 314H591.508L578.116 300.224C578.116 301.28 578.1 302.848 578.068 304.928C578.036 307.008 578.02 308.56 578.02 309.584C578.02 311.056 578.068 312.528 578.164 314H566.692C567.332 309.168 567.652 304.448 567.652 299.84C567.652 294.304 567.332 289.04 566.692 284.048H575.284L587.764 295.184C587.572 290.192 587.396 286.48 587.236 284.048H599.716C599.396 287.664 599.236 291.456 599.236 295.424C599.236 297.504 599.316 300.608 599.476 304.736C599.636 308.864 599.716 311.952 599.716 314ZM613.907 314H601.427C601.619 309.008 601.715 304.016 601.715 299.024C601.715 294.032 601.619 289.04 601.427 284.048H613.907C613.683 290.256 613.571 295.584 613.571 300.032C613.571 303.904 613.683 308.56 613.907 314ZM650.526 286.736C646.462 296.24 643.182 305.328 640.686 314H628.35C623.87 303.888 619.63 295.184 615.63 287.888L627.198 284.048C629.982 289.904 632.254 294.784 634.014 298.688C634.526 296.896 635.31 294.24 636.366 290.72C637.454 287.168 638.254 284.512 638.766 282.752C642.446 283.936 646.366 285.264 650.526 286.736ZM674.991 292.016C672.879 291.696 670.671 291.536 668.367 291.536C667.087 291.536 665.791 291.584 664.479 291.68C664.479 291.968 664.463 292.416 664.431 293.024C664.431 293.6 664.431 294.032 664.431 294.32V295.184C665.679 295.28 666.943 295.328 668.223 295.328C670.655 295.328 672.863 295.152 674.847 294.8L673.071 302.816H664.383C664.383 303.232 664.399 303.824 664.431 304.592C664.463 305.36 664.479 305.952 664.479 306.368C665.631 306.464 666.799 306.512 667.983 306.512C670.191 306.512 672.495 306.336 674.895 305.984L673.119 314H652.239C652.463 308.56 652.575 303.904 652.575 300.032C652.575 295.584 652.463 290.256 652.239 284.048H673.215L674.991 292.016ZM707.236 313.088L696.724 314.576C695.828 313.584 694.964 312.56 694.132 311.504C693.3 310.416 692.276 309.04 691.06 307.376C689.876 305.712 689.092 304.624 688.708 304.112C688.708 307.088 688.548 310.384 688.228 314H677.284C677.572 311.12 677.716 307.728 677.716 303.824C677.716 298.32 677.38 291.728 676.708 284.048H689.284C695.3 284.048 698.836 284.4 699.892 285.104C704.34 288.016 706.564 290.88 706.564 293.696C706.564 295.168 705.924 296.896 704.644 298.88C703.364 300.832 702.036 302.064 700.66 302.576C702.196 306.736 704.388 310.24 707.236 313.088ZM694.228 295.184C694.228 294.256 692.404 293.072 688.756 291.632C688.628 294.384 688.564 296.448 688.564 297.824V300.464C692.34 298.864 694.228 297.104 694.228 295.184ZM718.942 315.296L708.958 309.872C712.798 308.784 714.718 307.024 714.718 304.592C714.718 303.536 714.43 302.496 713.854 301.472C713.278 300.416 712.638 299.52 711.934 298.784C711.262 298.048 710.638 297.152 710.062 296.096C709.486 295.04 709.198 293.968 709.198 292.88C709.198 291.92 709.454 290.96 709.966 290C710.862 288.272 712.014 286.928 713.422 285.968C714.83 285.008 716.622 284.16 718.798 283.424L727.246 288.512C724.398 290.144 722.974 292.048 722.974 294.224C722.974 294.96 723.246 295.776 723.79 296.672C724.366 297.536 724.99 298.336 725.662 299.072C726.334 299.808 726.942 300.768 727.486 301.952C728.062 303.104 728.35 304.304 728.35 305.552C728.35 309.84 725.214 313.088 718.942 315.296ZM752.85 292.016C750.738 291.696 748.53 291.536 746.226 291.536C744.946 291.536 743.65 291.584 742.338 291.68C742.338 291.968 742.322 292.416 742.29 293.024C742.29 293.6 742.29 294.032 742.29 294.32V295.184C743.538 295.28 744.802 295.328 746.082 295.328C748.514 295.328 750.722 295.152 752.706 294.8L750.93 302.816H742.242C742.242 303.232 742.258 303.824 742.29 304.592C742.322 305.36 742.338 305.952 742.338 306.368C743.49 306.464 744.658 306.512 745.842 306.512C748.05 306.512 750.354 306.336 752.754 305.984L750.978 314H730.098C730.322 308.56 730.434 303.904 730.434 300.032C730.434 295.584 730.322 290.256 730.098 284.048H751.074L752.85 292.016ZM768.308 308.576L761.924 315.056C761.028 314.416 759.684 313.568 757.892 312.512C756.1 311.424 754.82 310.624 754.052 310.112L760.484 302.864L768.308 308.576ZM840.386 281.984L830.882 314H821.906L814.274 300.176L807.074 314H796.946C793.618 302.64 790.226 292.448 786.77 283.424L800.354 279.968L804.482 295.136L814.274 279.968L823.394 293.648L827.81 279.968L840.386 281.984ZM872.514 314H860.034C860.194 310.736 860.29 307.488 860.322 304.256H854.37C854.37 307.136 854.45 310.384 854.61 314H842.13C842.354 308.56 842.466 303.904 842.466 300.032C842.466 295.584 842.354 290.256 842.13 284.048H854.61C854.45 287.632 854.37 290.832 854.37 293.648H860.322C860.29 290.48 860.194 287.28 860.034 284.048H872.514C872.29 290.256 872.178 295.584 872.178 300.032C872.178 303.904 872.29 308.56 872.514 314ZM911.103 314H899.055L897.135 309.248H887.151L885.423 314H874.239L886.047 284.048H896.943L911.103 314ZM893.775 301.136L891.807 296.432L890.079 301.136H893.775ZM934.831 284.048L932.623 294.368C931.919 294.368 930.895 294.272 929.551 294.08C928.207 293.888 927.183 293.792 926.479 293.792V300.608C926.479 305.056 926.575 309.52 926.767 314H914.719C914.911 309.84 915.007 305.664 915.007 301.472V297.92C915.007 297.472 914.991 296.8 914.959 295.904C914.959 295.008 914.959 294.336 914.959 293.888H914.719C911.743 293.888 909.359 294.112 907.567 294.56L908.479 284.048H934.831ZM62.544 367.6L50.208 370L43.056 359.92C43.12 363.28 43.216 366.64 43.344 370H30.864C31.216 364.784 31.392 359.792 31.392 355.024C31.392 350.256 31.216 345.264 30.864 340.048H43.344C43.184 344.24 43.088 348.4 43.056 352.528L48.432 340.048L60.768 342.448L53.232 355.408L62.544 367.6ZM76.7659 370H64.2859C64.4779 365.008 64.5739 360.016 64.5739 355.024C64.5739 350.032 64.4779 345.04 64.2859 340.048H76.7659C76.5419 346.256 76.4299 351.584 76.4299 356.032C76.4299 359.904 76.5419 364.56 76.7659 370ZM111.513 370H103.305L89.913 356.224C89.913 357.28 89.897 358.848 89.865 360.928C89.833 363.008 89.817 364.56 89.817 365.584C89.817 367.056 89.865 368.528 89.961 370H78.489C79.129 365.168 79.449 360.448 79.449 355.84C79.449 350.304 79.129 345.04 78.489 340.048H87.081L99.561 351.184C99.369 346.192 99.193 342.48 99.033 340.048H111.513C111.193 343.664 111.033 347.456 111.033 351.424C111.033 353.504 111.113 356.608 111.273 360.736C111.433 364.864 111.513 367.952 111.513 370ZM142.743 355.168C142.743 359.488 141.351 363.04 138.567 365.824C135.815 368.608 132.071 370 127.335 370H113.223C113.415 365.456 113.511 360.912 113.511 356.368C113.511 350.928 113.415 345.488 113.223 340.048H125.415C128.487 340.048 131.303 340.592 133.863 341.68C136.455 342.768 138.583 344.48 140.247 346.816C141.911 349.152 142.743 351.936 142.743 355.168ZM131.751 355.504C130.215 352.4 128.023 350.736 125.175 350.512C125.143 351.408 125.127 353.376 125.127 356.416C125.127 358.176 125.143 359.504 125.175 360.4C128.151 360.08 130.343 358.448 131.751 355.504ZM189.207 344.032C192.215 346.656 193.719 350.32 193.719 355.024C193.719 359.728 192.199 363.408 189.159 366.064C186.151 368.688 182.263 370 177.495 370C172.727 370 168.823 368.688 165.783 366.064C162.743 363.408 161.223 359.728 161.223 355.024C161.223 350.32 162.727 346.656 165.735 344.032C168.775 341.376 172.695 340.048 177.495 340.048C182.295 340.048 186.199 341.376 189.207 344.032ZM180.903 358.144C181.863 357.184 182.343 356.032 182.343 354.688C182.343 353.344 181.863 352.208 180.903 351.28C179.975 350.352 178.839 349.888 177.495 349.888C176.183 349.888 175.047 350.368 174.087 351.328C173.159 352.256 172.695 353.376 172.695 354.688C172.695 356.032 173.159 357.184 174.087 358.144C175.015 359.072 176.151 359.536 177.495 359.536C178.839 359.536 179.975 359.072 180.903 358.144ZM219.682 348.736C216.13 348.096 212.13 347.776 207.682 347.776C207.618 349.504 207.586 350.8 207.586 351.664H217.282L218.626 361.216C215.33 360.512 211.666 360.16 207.634 360.16C207.634 363.104 207.714 366.384 207.874 370H195.442C195.634 365.008 195.73 360.016 195.73 355.024C195.73 350.032 195.634 345.04 195.442 340.048H218.338L219.682 348.736ZM261.521 358.48L259.457 370H238.145C238.529 365.2 238.721 360.4 238.721 355.6C238.721 350.416 238.529 345.232 238.145 340.048H250.865C250.609 345.776 250.481 351.168 250.481 356.224C250.481 356.576 250.481 357.12 250.481 357.856C250.513 358.56 250.529 359.088 250.529 359.44C253.377 359.44 257.041 359.12 261.521 358.48ZM275.75 370H263.27C263.462 365.008 263.558 360.016 263.558 355.024C263.558 350.032 263.462 345.04 263.27 340.048H275.75C275.526 346.256 275.414 351.584 275.414 356.032C275.414 359.904 275.526 364.56 275.75 370ZM301.713 348.736C298.161 348.096 294.161 347.776 289.713 347.776C289.649 349.504 289.617 350.8 289.617 351.664H299.313L300.657 361.216C297.361 360.512 293.697 360.16 289.665 360.16C289.665 363.104 289.745 366.384 289.905 370H277.473C277.665 365.008 277.761 360.016 277.761 355.024C277.761 350.032 277.665 345.04 277.473 340.048H300.369L301.713 348.736ZM326.194 348.016C324.082 347.696 321.874 347.536 319.57 347.536C318.29 347.536 316.994 347.584 315.682 347.68C315.682 347.968 315.666 348.416 315.634 349.024C315.634 349.6 315.634 350.032 315.634 350.32V351.184C316.882 351.28 318.146 351.328 319.426 351.328C321.858 351.328 324.066 351.152 326.05 350.8L324.274 358.816H315.586C315.586 359.232 315.602 359.824 315.634 360.592C315.666 361.36 315.682 361.952 315.682 362.368C316.834 362.464 318.002 362.512 319.186 362.512C321.394 362.512 323.698 362.336 326.098 361.984L324.322 370H303.442C303.666 364.56 303.778 359.904 303.778 356.032C303.778 351.584 303.666 346.256 303.442 340.048H324.418L326.194 348.016ZM344.471 357.136C341.367 359.056 339.191 360.016 337.943 360.016L344.231 364.576L337.895 371.056C336.999 370.416 335.639 369.568 333.815 368.512C331.991 367.424 330.711 366.624 329.975 366.112L335.207 360.256C333.223 360.256 331.511 359.744 330.071 358.72C328.631 357.664 327.911 356.176 327.911 354.256C327.911 353.072 328.407 351.664 329.399 350.032C330.423 348.368 330.935 347.088 330.935 346.192C330.935 344.784 330.103 343.056 328.439 341.008L337.607 335.968C341.927 338.08 344.087 340.432 344.087 343.024C344.087 343.824 343.655 345.152 342.791 347.008C341.959 348.864 341.543 350.352 341.543 351.472C341.543 351.824 341.591 352.192 341.687 352.576C341.783 352.96 341.879 353.28 341.975 353.536C342.071 353.76 342.263 354.096 342.551 354.544C342.839 354.96 343.015 355.232 343.079 355.36C343.175 355.488 343.415 355.808 343.799 356.32C344.215 356.832 344.439 357.104 344.471 357.136ZM389.519 356.896L387.167 370H362.927C363.343 364.56 363.551 358.88 363.551 352.96C363.551 347.776 363.343 342.112 362.927 335.968H377.423C377.135 344.096 376.991 349.536 376.991 352.288C376.991 352.928 376.991 353.888 376.991 355.168C377.023 356.416 377.039 357.36 377.039 358C380.015 358 384.175 357.632 389.519 356.896ZM403.719 370H391.239C391.431 365.008 391.527 360.016 391.527 355.024C391.527 350.032 391.431 345.04 391.239 340.048H403.719C403.495 346.256 403.383 351.584 403.383 356.032C403.383 359.904 403.495 364.56 403.719 370ZM429.682 348.736C426.13 348.096 422.13 347.776 417.682 347.776C417.618 349.504 417.586 350.8 417.586 351.664H427.282L428.626 361.216C425.33 360.512 421.666 360.16 417.634 360.16C417.634 363.104 417.714 366.384 417.874 370H405.442C405.634 365.008 405.73 360.016 405.73 355.024C405.73 350.032 405.634 345.04 405.442 340.048H428.338L429.682 348.736ZM454.163 348.016C452.051 347.696 449.843 347.536 447.539 347.536C446.259 347.536 444.963 347.584 443.651 347.68C443.651 347.968 443.635 348.416 443.603 349.024C443.603 349.6 443.603 350.032 443.603 350.32V351.184C444.851 351.28 446.115 351.328 447.395 351.328C449.827 351.328 452.035 351.152 454.019 350.8L452.243 358.816H443.555C443.555 359.232 443.571 359.824 443.603 360.592C443.635 361.36 443.651 361.952 443.651 362.368C444.803 362.464 445.971 362.512 447.155 362.512C449.363 362.512 451.667 362.336 454.067 361.984L452.291 370H431.411C431.635 364.56 431.747 359.904 431.747 356.032C431.747 351.584 431.635 346.256 431.411 340.048H452.387L454.163 348.016ZM494.55 361.264L490.278 370.624C488.198 370.272 486.15 369.68 484.134 368.848C482.118 368.016 480.23 366.96 478.47 365.68C476.71 364.4 475.286 362.816 474.198 360.928C473.142 359.008 472.614 356.96 472.614 354.784C472.614 352.672 473.11 350.704 474.102 348.88C475.094 347.024 476.406 345.472 478.038 344.224C479.702 342.944 481.478 341.872 483.366 341.008C485.254 340.144 487.206 339.52 489.222 339.136L494.454 347.824C492.47 348.24 490.646 349.024 488.982 350.176C487.35 351.328 486.534 352.784 486.534 354.544C486.534 356.304 487.35 357.76 488.982 358.912C490.646 360.064 492.502 360.848 494.55 361.264ZM524.27 344.032C527.278 346.656 528.782 350.32 528.782 355.024C528.782 359.728 527.262 363.408 524.222 366.064C521.214 368.688 517.326 370 512.558 370C507.79 370 503.886 368.688 500.846 366.064C497.806 363.408 496.286 359.728 496.286 355.024C496.286 350.32 497.79 346.656 500.798 344.032C503.838 341.376 507.758 340.048 512.558 340.048C517.358 340.048 521.262 341.376 524.27 344.032ZM515.966 358.144C516.926 357.184 517.406 356.032 517.406 354.688C517.406 353.344 516.926 352.208 515.966 351.28C515.038 350.352 513.902 349.888 512.558 349.888C511.246 349.888 510.11 350.368 509.15 351.328C508.222 352.256 507.758 353.376 507.758 354.688C507.758 356.032 508.222 357.184 509.15 358.144C510.078 359.072 511.214 359.536 512.558 359.536C513.902 359.536 515.038 359.072 515.966 358.144ZM562.869 342.736C558.805 352.24 555.525 361.328 553.029 370H540.693C536.213 359.888 531.973 351.184 527.973 343.888L539.541 340.048C542.325 345.904 544.597 350.784 546.357 354.688C546.869 352.896 547.653 350.24 548.709 346.72C549.797 343.168 550.597 340.512 551.109 338.752C554.789 339.936 558.709 341.264 562.869 342.736ZM587.335 348.016C585.223 347.696 583.015 347.536 580.711 347.536C579.431 347.536 578.135 347.584 576.823 347.68C576.823 347.968 576.807 348.416 576.775 349.024C576.775 349.6 576.775 350.032 576.775 350.32V351.184C578.023 351.28 579.287 351.328 580.567 351.328C582.999 351.328 585.207 351.152 587.191 350.8L585.415 358.816H576.727C576.727 359.232 576.743 359.824 576.775 360.592C576.807 361.36 576.823 361.952 576.823 362.368C577.975 362.464 579.143 362.512 580.327 362.512C582.535 362.512 584.839 362.336 587.239 361.984L585.463 370H564.583C564.807 364.56 564.919 359.904 564.919 356.032C564.919 351.584 564.807 346.256 564.583 340.048H585.559L587.335 348.016ZM619.58 369.088L609.068 370.576C608.172 369.584 607.308 368.56 606.476 367.504C605.644 366.416 604.62 365.04 603.404 363.376C602.22 361.712 601.436 360.624 601.052 360.112C601.052 363.088 600.892 366.384 600.572 370H589.628C589.916 367.12 590.06 363.728 590.06 359.824C590.06 354.32 589.724 347.728 589.052 340.048H601.628C607.644 340.048 611.18 340.4 612.236 341.104C616.684 344.016 618.908 346.88 618.908 349.696C618.908 351.168 618.268 352.896 616.988 354.88C615.708 356.832 614.38 358.064 613.004 358.576C614.54 362.736 616.732 366.24 619.58 369.088ZM606.572 351.184C606.572 350.256 604.748 349.072 601.1 347.632C600.972 350.384 600.908 352.448 600.908 353.824V356.464C604.684 354.864 606.572 353.104 606.572 351.184ZM644.054 348.016C641.942 347.696 639.734 347.536 637.43 347.536C636.15 347.536 634.854 347.584 633.542 347.68C633.542 347.968 633.526 348.416 633.494 349.024C633.494 349.6 633.494 350.032 633.494 350.32V351.184C634.742 351.28 636.006 351.328 637.286 351.328C639.718 351.328 641.926 351.152 643.91 350.8L642.134 358.816H633.446C633.446 359.232 633.462 359.824 633.494 360.592C633.526 361.36 633.542 361.952 633.542 362.368C634.694 362.464 635.862 362.512 637.046 362.512C639.254 362.512 641.558 362.336 643.958 361.984L642.182 370H621.302C621.526 364.56 621.638 359.904 621.638 356.032C621.638 351.584 621.526 346.256 621.302 340.048H642.278L644.054 348.016ZM675.29 355.168C675.29 359.488 673.898 363.04 671.114 365.824C668.362 368.608 664.618 370 659.882 370H645.77C645.962 365.456 646.058 360.912 646.058 356.368C646.058 350.928 645.962 345.488 645.77 340.048H657.962C661.034 340.048 663.85 340.592 666.41 341.68C669.002 342.768 671.13 344.48 672.794 346.816C674.458 349.152 675.29 351.936 675.29 355.168ZM664.298 355.504C662.762 352.4 660.57 350.736 657.722 350.512C657.69 351.408 657.674 353.376 657.674 356.416C657.674 358.176 657.69 359.504 657.722 360.4C660.698 360.08 662.89 358.448 664.298 355.504ZM706.25 370H693.77C693.962 365.008 694.058 360.016 694.058 355.024C694.058 350.032 693.962 345.04 693.77 340.048H706.25C706.026 346.256 705.914 351.584 705.914 356.032C705.914 359.904 706.026 364.56 706.25 370ZM740.997 370H732.789L719.397 356.224C719.397 357.28 719.381 358.848 719.349 360.928C719.317 363.008 719.301 364.56 719.301 365.584C719.301 367.056 719.349 368.528 719.445 370H707.973C708.613 365.168 708.933 360.448 708.933 355.84C708.933 350.304 708.613 345.04 707.973 340.048H716.565L729.045 351.184C728.853 346.192 728.677 342.48 728.517 340.048H740.997C740.677 343.664 740.517 347.456 740.517 351.424C740.517 353.504 740.597 356.608 740.757 360.736C740.917 364.864 740.997 367.952 740.997 370ZM769.426 371.296L759.442 365.872C763.282 364.784 765.202 363.024 765.202 360.592C765.202 359.536 764.914 358.496 764.338 357.472C763.762 356.416 763.122 355.52 762.418 354.784C761.746 354.048 761.122 353.152 760.546 352.096C759.97 351.04 759.682 349.968 759.682 348.88C759.682 347.92 759.938 346.96 760.45 346C761.346 344.272 762.498 342.928 763.906 341.968C765.314 341.008 767.106 340.16 769.282 339.424L777.73 344.512C774.882 346.144 773.458 348.048 773.458 350.224C773.458 350.96 773.73 351.776 774.274 352.672C774.85 353.536 775.474 354.336 776.146 355.072C776.818 355.808 777.426 356.768 777.97 357.952C778.546 359.104 778.834 360.304 778.834 361.552C778.834 365.84 775.698 369.088 769.426 371.296ZM802.519 361.264L798.247 370.624C796.167 370.272 794.119 369.68 792.103 368.848C790.087 368.016 788.199 366.96 786.439 365.68C784.679 364.4 783.255 362.816 782.167 360.928C781.111 359.008 780.583 356.96 780.583 354.784C780.583 352.672 781.079 350.704 782.071 348.88C783.063 347.024 784.375 345.472 786.007 344.224C787.671 342.944 789.447 341.872 791.335 341.008C793.223 340.144 795.175 339.52 797.191 339.136L802.423 347.824C800.439 348.24 798.615 349.024 796.951 350.176C795.319 351.328 794.503 352.784 794.503 354.544C794.503 356.304 795.319 357.76 796.951 358.912C798.615 360.064 800.471 360.848 802.519 361.264ZM841.119 370H829.071L827.151 365.248H817.167L815.439 370H804.255L816.063 340.048H826.959L841.119 370ZM823.791 357.136L821.823 352.432L820.095 357.136H823.791ZM866.209 358.48L864.145 370H842.833C843.217 365.2 843.409 360.4 843.409 355.6C843.409 350.416 843.217 345.232 842.833 340.048H855.553C855.297 345.776 855.169 351.168 855.169 356.224C855.169 356.576 855.169 357.12 855.169 357.856C855.201 358.56 855.217 359.088 855.217 359.44C858.065 359.44 861.729 359.12 866.209 358.48ZM890.71 348.016C888.598 347.696 886.39 347.536 884.086 347.536C882.806 347.536 881.51 347.584 880.198 347.68C880.198 347.968 880.182 348.416 880.15 349.024C880.15 349.6 880.15 350.032 880.15 350.32V351.184C881.398 351.28 882.662 351.328 883.942 351.328C886.374 351.328 888.582 351.152 890.566 350.8L888.79 358.816H880.102C880.102 359.232 880.118 359.824 880.15 360.592C880.182 361.36 880.198 361.952 880.198 362.368C881.35 362.464 882.518 362.512 883.702 362.512C885.91 362.512 888.214 362.336 890.614 361.984L888.838 370H867.958C868.182 364.56 868.294 359.904 868.294 356.032C868.294 351.584 868.182 346.256 867.958 340.048H888.934L890.71 348.016ZM902.411 371.296L892.427 365.872C896.267 364.784 898.187 363.024 898.187 360.592C898.187 359.536 897.899 358.496 897.323 357.472C896.747 356.416 896.107 355.52 895.403 354.784C894.731 354.048 894.107 353.152 893.531 352.096C892.955 351.04 892.667 349.968 892.667 348.88C892.667 347.92 892.923 346.96 893.435 346C894.331 344.272 895.483 342.928 896.891 341.968C898.299 341.008 900.091 340.16 902.267 339.424L910.715 344.512C907.867 346.144 906.443 348.048 906.443 350.224C906.443 350.96 906.715 351.776 907.259 352.672C907.835 353.536 908.459 354.336 909.131 355.072C909.803 355.808 910.411 356.768 910.955 357.952C911.531 359.104 911.819 360.304 911.819 361.552C911.819 365.84 908.683 369.088 902.411 371.296ZM926.933 364.576L920.549 371.056C919.653 370.416 918.309 369.568 916.517 368.512C914.725 367.424 913.445 366.624 912.677 366.112L919.109 358.864L926.933 364.576ZM57.456 412.896L55.104 426H30.864C31.28 420.56 31.488 414.88 31.488 408.96C31.488 403.776 31.28 398.112 30.864 391.968H45.36C45.072 400.096 44.928 405.536 44.928 408.288C44.928 408.928 44.928 409.888 44.928 411.168C44.96 412.416 44.976 413.36 44.976 414C47.952 414 52.112 413.632 57.456 412.896ZM71.6565 426H59.1765C59.3685 421.008 59.4645 416.016 59.4645 411.024C59.4645 406.032 59.3685 401.04 59.1765 396.048H71.6565C71.4325 402.256 71.3205 407.584 71.3205 412.032C71.3205 415.904 71.4325 420.56 71.6565 426ZM97.6196 404.736C94.0676 404.096 90.0676 403.776 85.6196 403.776C85.5556 405.504 85.5236 406.8 85.5236 407.664H95.2196L96.5636 417.216C93.2676 416.512 89.6036 416.16 85.5716 416.16C85.5716 419.104 85.6516 422.384 85.8116 426H73.3796C73.5716 421.008 73.6676 416.016 73.6676 411.024C73.6676 406.032 73.5716 401.04 73.3796 396.048H96.2756L97.6196 404.736ZM122.1 404.016C119.988 403.696 117.78 403.536 115.476 403.536C114.196 403.536 112.9 403.584 111.588 403.68C111.588 403.968 111.572 404.416 111.54 405.024C111.54 405.6 111.54 406.032 111.54 406.32V407.184C112.788 407.28 114.052 407.328 115.332 407.328C117.764 407.328 119.972 407.152 121.956 406.8L120.18 414.816H111.492C111.492 415.232 111.508 415.824 111.54 416.592C111.572 417.36 111.588 417.952 111.588 418.368C112.74 418.464 113.908 418.512 115.092 418.512C117.3 418.512 119.604 418.336 122.004 417.984L120.228 426H99.3484C99.5724 420.56 99.6844 415.904 99.6844 412.032C99.6844 407.584 99.5724 402.256 99.3484 396.048H120.324L122.1 404.016ZM167.816 396.048L165.608 406.368C164.904 406.368 163.88 406.272 162.536 406.08C161.192 405.888 160.168 405.792 159.464 405.792V412.608C159.464 417.056 159.56 421.52 159.752 426H147.704C147.896 421.84 147.992 417.664 147.992 413.472V409.92C147.992 409.472 147.976 408.8 147.944 407.904C147.944 407.008 147.944 406.336 147.944 405.888H147.704C144.728 405.888 142.344 406.112 140.552 406.56L141.464 396.048H167.816ZM199.904 426H187.424C187.584 422.736 187.68 419.488 187.712 416.256H181.76C181.76 419.136 181.84 422.384 182 426H169.52C169.744 420.56 169.856 415.904 169.856 412.032C169.856 407.584 169.744 402.256 169.52 396.048H182C181.84 399.632 181.76 402.832 181.76 405.648H187.712C187.68 402.48 187.584 399.28 187.424 396.048H199.904C199.68 402.256 199.568 407.584 199.568 412.032C199.568 415.904 199.68 420.56 199.904 426ZM238.494 426H226.446L224.526 421.248H214.542L212.814 426H201.63L213.438 396.048H224.334L238.494 426ZM221.166 413.136L219.198 408.432L217.47 413.136H221.166ZM262.222 396.048L260.014 406.368C259.31 406.368 258.286 406.272 256.942 406.08C255.598 405.888 254.574 405.792 253.87 405.792V412.608C253.87 417.056 253.966 421.52 254.158 426H242.11C242.302 421.84 242.398 417.664 242.398 413.472V409.92C242.398 409.472 242.382 408.8 242.35 407.904C242.35 407.008 242.35 406.336 242.35 405.888H242.11C239.134 405.888 236.75 406.112 234.958 406.56L235.87 396.048H262.222ZM290.645 427.296L280.661 421.872C284.501 420.784 286.421 419.024 286.421 416.592C286.421 415.536 286.133 414.496 285.557 413.472C284.981 412.416 284.341 411.52 283.637 410.784C282.965 410.048 282.341 409.152 281.765 408.096C281.189 407.04 280.901 405.968 280.901 404.88C280.901 403.92 281.157 402.96 281.669 402C282.565 400.272 283.717 398.928 285.125 397.968C286.533 397.008 288.325 396.16 290.501 395.424L298.949 400.512C296.101 402.144 294.677 404.048 294.677 406.224C294.677 406.96 294.949 407.776 295.493 408.672C296.069 409.536 296.693 410.336 297.365 411.072C298.037 411.808 298.645 412.768 299.189 413.952C299.765 415.104 300.053 416.304 300.053 417.552C300.053 421.84 296.917 425.088 290.645 427.296ZM332.954 426H321.866C321.642 424.048 321.466 422.672 321.338 421.872C319.61 424.24 318.49 425.696 317.978 426.24C312.058 426.24 306.666 425.104 301.802 422.832C302.762 417.904 303.242 412.912 303.242 407.856C303.242 403.984 302.97 400.048 302.426 396.048H314.666C314.666 404.688 314.106 410.992 312.986 414.96C314.81 416.624 317.114 417.456 319.898 417.456C319.994 417.456 320.17 417.44 320.426 417.408C320.682 417.376 320.858 417.36 320.954 417.36C320.73 413.904 320.618 410.192 320.618 406.224C320.618 402.288 320.698 398.896 320.858 396.048H332.954C332.73 402.256 332.618 407.584 332.618 412.032C332.618 415.904 332.73 420.56 332.954 426ZM365.189 425.088L354.677 426.576C353.781 425.584 352.917 424.56 352.085 423.504C351.253 422.416 350.229 421.04 349.013 419.376C347.829 417.712 347.045 416.624 346.661 416.112C346.661 419.088 346.501 422.384 346.181 426H335.237C335.525 423.12 335.669 419.728 335.669 415.824C335.669 410.32 335.333 403.728 334.661 396.048H347.237C353.253 396.048 356.789 396.4 357.845 397.104C362.293 400.016 364.517 402.88 364.517 405.696C364.517 407.168 363.877 408.896 362.597 410.88C361.317 412.832 359.989 414.064 358.613 414.576C360.149 418.736 362.341 422.24 365.189 425.088ZM352.181 407.184C352.181 406.256 350.357 405.072 346.709 403.632C346.581 406.384 346.517 408.448 346.517 409.824V412.464C350.293 410.864 352.181 409.104 352.181 407.184ZM399.651 398.736C395.587 408.24 392.307 417.328 389.811 426H377.475C372.995 415.888 368.755 407.184 364.755 399.888L376.323 396.048C379.107 401.904 381.379 406.784 383.139 410.688C383.651 408.896 384.435 406.24 385.491 402.72C386.579 399.168 387.379 396.512 387.891 394.752C391.571 395.936 395.491 397.264 399.651 398.736ZM413.844 426H401.364C401.556 421.008 401.652 416.016 401.652 411.024C401.652 406.032 401.556 401.04 401.364 396.048H413.844C413.62 402.256 413.508 407.584 413.508 412.032C413.508 415.904 413.62 420.56 413.844 426ZM450.463 398.736C446.399 408.24 443.119 417.328 440.623 426H428.287C423.807 415.888 419.567 407.184 415.567 399.888L427.135 396.048C429.919 401.904 432.191 406.784 433.951 410.688C434.463 408.896 435.247 406.24 436.303 402.72C437.391 399.168 438.191 396.512 438.703 394.752C442.383 395.936 446.303 397.264 450.463 398.736ZM474.929 404.016C472.817 403.696 470.609 403.536 468.305 403.536C467.025 403.536 465.729 403.584 464.417 403.68C464.417 403.968 464.401 404.416 464.369 405.024C464.369 405.6 464.369 406.032 464.369 406.32V407.184C465.617 407.28 466.881 407.328 468.161 407.328C470.593 407.328 472.801 407.152 474.785 406.8L473.009 414.816H464.321C464.321 415.232 464.337 415.824 464.369 416.592C464.401 417.36 464.417 417.952 464.417 418.368C465.569 418.464 466.737 418.512 467.921 418.512C470.129 418.512 472.433 418.336 474.833 417.984L473.057 426H452.177C452.401 420.56 452.513 415.904 452.513 412.032C452.513 407.584 452.401 402.256 452.177 396.048H473.153L474.929 404.016ZM486.629 427.296L476.645 421.872C480.485 420.784 482.405 419.024 482.405 416.592C482.405 415.536 482.117 414.496 481.541 413.472C480.965 412.416 480.325 411.52 479.621 410.784C478.949 410.048 478.325 409.152 477.749 408.096C477.173 407.04 476.885 405.968 476.885 404.88C476.885 403.92 477.141 402.96 477.653 402C478.549 400.272 479.701 398.928 481.109 397.968C482.517 397.008 484.309 396.16 486.485 395.424L494.933 400.512C492.085 402.144 490.661 404.048 490.661 406.224C490.661 406.96 490.933 407.776 491.477 408.672C492.053 409.536 492.677 410.336 493.349 411.072C494.021 411.808 494.629 412.768 495.173 413.952C495.749 415.104 496.037 416.304 496.037 417.552C496.037 421.84 492.901 425.088 486.629 427.296ZM527 426H514.52C514.712 421.008 514.808 416.016 514.808 411.024C514.808 406.032 514.712 401.04 514.52 396.048H527C526.776 402.256 526.664 407.584 526.664 412.032C526.664 415.904 526.776 420.56 527 426ZM561.747 426H553.539L540.147 412.224C540.147 413.28 540.131 414.848 540.099 416.928C540.067 419.008 540.051 420.56 540.051 421.584C540.051 423.056 540.099 424.528 540.195 426H528.723C529.363 421.168 529.683 416.448 529.683 411.84C529.683 406.304 529.363 401.04 528.723 396.048H537.315L549.795 407.184C549.603 402.192 549.427 398.48 549.267 396.048H561.747C561.427 399.664 561.267 403.456 561.267 407.424C561.267 409.504 561.347 412.608 561.507 416.736C561.667 420.864 561.747 423.952 561.747 426ZM607.456 396.048L605.248 406.368C604.544 406.368 603.52 406.272 602.176 406.08C600.832 405.888 599.808 405.792 599.104 405.792V412.608C599.104 417.056 599.2 421.52 599.392 426H587.344C587.536 421.84 587.632 417.664 587.632 413.472V409.92C587.632 409.472 587.616 408.8 587.584 407.904C587.584 407.008 587.584 406.336 587.584 405.888H587.344C584.368 405.888 581.984 406.112 580.192 406.56L581.104 396.048H607.456ZM639.545 426H627.065C627.225 422.736 627.321 419.488 627.353 416.256H621.401C621.401 419.136 621.481 422.384 621.641 426H609.161C609.385 420.56 609.497 415.904 609.497 412.032C609.497 407.584 609.385 402.256 609.161 396.048H621.641C621.481 399.632 621.401 402.832 621.401 405.648H627.353C627.321 402.48 627.225 399.28 627.065 396.048H639.545C639.321 402.256 639.209 407.584 639.209 412.032C639.209 415.904 639.321 420.56 639.545 426ZM664.022 404.016C661.91 403.696 659.702 403.536 657.398 403.536C656.118 403.536 654.822 403.584 653.51 403.68C653.51 403.968 653.494 404.416 653.462 405.024C653.462 405.6 653.462 406.032 653.462 406.32V407.184C654.71 407.28 655.974 407.328 657.254 407.328C659.686 407.328 661.894 407.152 663.878 406.8L662.102 414.816H653.414C653.414 415.232 653.43 415.824 653.462 416.592C653.494 417.36 653.51 417.952 653.51 418.368C654.662 418.464 655.83 418.512 657.014 418.512C659.222 418.512 661.526 418.336 663.926 417.984L662.15 426H641.27C641.494 420.56 641.606 415.904 641.606 412.032C641.606 407.584 641.494 402.256 641.27 396.048H662.246L664.022 404.016ZM712.857 426H700.377C700.537 422.736 700.633 419.488 700.665 416.256H694.713C694.713 419.136 694.793 422.384 694.953 426H682.473C682.697 420.56 682.809 415.904 682.809 412.032C682.809 407.584 682.697 402.256 682.473 396.048H694.953C694.793 399.632 694.713 402.832 694.713 405.648H700.665C700.633 402.48 700.537 399.28 700.377 396.048H712.857C712.633 402.256 712.521 407.584 712.521 412.032C712.521 415.904 712.633 420.56 712.857 426ZM751.447 426H739.399L737.479 421.248H727.495L725.767 426H714.583L726.391 396.048H737.287L751.447 426ZM734.119 413.136L732.151 408.432L730.423 413.136H734.119ZM783.689 425.088L773.177 426.576C772.281 425.584 771.417 424.56 770.585 423.504C769.753 422.416 768.729 421.04 767.513 419.376C766.329 417.712 765.545 416.624 765.161 416.112C765.161 419.088 765.001 422.384 764.681 426H753.737C754.025 423.12 754.169 419.728 754.169 415.824C754.169 410.32 753.833 403.728 753.161 396.048H765.737C771.753 396.048 775.289 396.4 776.345 397.104C780.793 400.016 783.017 402.88 783.017 405.696C783.017 407.168 782.377 408.896 781.097 410.88C779.817 412.832 778.489 414.064 777.113 414.576C778.649 418.736 780.841 422.24 783.689 425.088ZM770.681 407.184C770.681 406.256 768.857 405.072 765.209 403.632C765.081 406.384 765.017 408.448 765.017 409.824V412.464C768.793 410.864 770.681 409.104 770.681 407.184ZM795.395 427.296L785.411 421.872C789.251 420.784 791.171 419.024 791.171 416.592C791.171 415.536 790.883 414.496 790.307 413.472C789.731 412.416 789.091 411.52 788.387 410.784C787.715 410.048 787.091 409.152 786.515 408.096C785.939 407.04 785.651 405.968 785.651 404.88C785.651 403.92 785.907 402.96 786.419 402C787.315 400.272 788.467 398.928 789.875 397.968C791.283 397.008 793.075 396.16 795.251 395.424L803.699 400.512C800.851 402.144 799.427 404.048 799.427 406.224C799.427 406.96 799.699 407.776 800.243 408.672C800.819 409.536 801.443 410.336 802.115 411.072C802.787 411.808 803.395 412.768 803.939 413.952C804.515 415.104 804.803 416.304 804.803 417.552C804.803 421.84 801.667 425.088 795.395 427.296ZM836.936 426H824.456C824.616 422.736 824.712 419.488 824.744 416.256H818.792C818.792 419.136 818.872 422.384 819.032 426H806.552C806.776 420.56 806.888 415.904 806.888 412.032C806.888 407.584 806.776 402.256 806.552 396.048H819.032C818.872 399.632 818.792 402.832 818.792 405.648H824.744C824.712 402.48 824.616 399.28 824.456 396.048H836.936C836.712 402.256 836.6 407.584 836.6 412.032C836.6 415.904 836.712 420.56 836.936 426ZM861.413 404.016C859.301 403.696 857.093 403.536 854.789 403.536C853.509 403.536 852.213 403.584 850.901 403.68C850.901 403.968 850.885 404.416 850.853 405.024C850.853 405.6 850.853 406.032 850.853 406.32V407.184C852.101 407.28 853.365 407.328 854.645 407.328C857.077 407.328 859.285 407.152 861.269 406.8L859.493 414.816H850.805C850.805 415.232 850.821 415.824 850.853 416.592C850.885 417.36 850.901 417.952 850.901 418.368C852.053 418.464 853.221 418.512 854.405 418.512C856.613 418.512 858.917 418.336 861.317 417.984L859.541 426H838.661C838.885 420.56 838.997 415.904 838.997 412.032C838.997 407.584 838.885 402.256 838.661 396.048H859.637L861.413 404.016ZM873.114 427.296L863.13 421.872C866.97 420.784 868.89 419.024 868.89 416.592C868.89 415.536 868.602 414.496 868.026 413.472C867.45 412.416 866.81 411.52 866.106 410.784C865.434 410.048 864.81 409.152 864.234 408.096C863.658 407.04 863.37 405.968 863.37 404.88C863.37 403.92 863.626 402.96 864.138 402C865.034 400.272 866.186 398.928 867.594 397.968C869.002 397.008 870.794 396.16 872.97 395.424L881.418 400.512C878.57 402.144 877.146 404.048 877.146 406.224C877.146 406.96 877.418 407.776 877.962 408.672C878.538 409.536 879.162 410.336 879.834 411.072C880.506 411.808 881.114 412.768 881.658 413.952C882.234 415.104 882.522 416.304 882.522 417.552C882.522 421.84 879.386 425.088 873.114 427.296ZM911.534 396.048L909.326 406.368C908.622 406.368 907.598 406.272 906.254 406.08C904.91 405.888 903.886 405.792 903.182 405.792V412.608C903.182 417.056 903.278 421.52 903.47 426H891.422C891.614 421.84 891.71 417.664 891.71 413.472V409.92C891.71 409.472 891.694 408.8 891.662 407.904C891.662 407.008 891.662 406.336 891.662 405.888H891.422C888.446 405.888 886.062 406.112 884.27 406.56L885.182 396.048H911.534ZM52.8 473.264L48.528 482.624C46.448 482.272 44.4 481.68 42.384 480.848C40.368 480.016 38.48 478.96 36.72 477.68C34.96 476.4 33.536 474.816 32.448 472.928C31.392 471.008 30.864 468.96 30.864 466.784C30.864 464.672 31.36 462.704 32.352 460.88C33.344 459.024 34.656 457.472 36.288 456.224C37.952 454.944 39.728 453.872 41.616 453.008C43.504 452.144 45.456 451.52 47.472 451.136L52.704 459.824C50.72 460.24 48.896 461.024 47.232 462.176C45.6 463.328 44.784 464.784 44.784 466.544C44.784 468.304 45.6 469.76 47.232 470.912C48.896 472.064 50.752 472.848 52.8 473.264ZM82.5199 456.032C85.5279 458.656 87.0319 462.32 87.0319 467.024C87.0319 471.728 85.5119 475.408 82.4719 478.064C79.4639 480.688 75.5759 482 70.8079 482C66.0399 482 62.1359 480.688 59.0959 478.064C56.0559 475.408 54.5359 471.728 54.5359 467.024C54.5359 462.32 56.0399 458.656 59.0479 456.032C62.0879 453.376 66.0079 452.048 70.8079 452.048C75.6079 452.048 79.5119 453.376 82.5199 456.032ZM74.2159 470.144C75.1759 469.184 75.6559 468.032 75.6559 466.688C75.6559 465.344 75.1759 464.208 74.2159 463.28C73.2879 462.352 72.1519 461.888 70.8079 461.888C69.4959 461.888 68.3599 462.368 67.3999 463.328C66.4719 464.256 66.0079 465.376 66.0079 466.688C66.0079 468.032 66.4719 469.184 67.3999 470.144C68.3279 471.072 69.4639 471.536 70.8079 471.536C72.1519 471.536 73.2879 471.072 74.2159 470.144ZM121.779 482H113.571L100.179 468.224C100.179 469.28 100.163 470.848 100.131 472.928C100.099 475.008 100.083 476.56 100.083 477.584C100.083 479.056 100.131 480.528 100.227 482H88.7546C89.3946 477.168 89.7146 472.448 89.7146 467.84C89.7146 462.304 89.3946 457.04 88.7546 452.048H97.3466L109.827 463.184C109.635 458.192 109.459 454.48 109.299 452.048H121.779C121.459 455.664 121.299 459.456 121.299 463.424C121.299 465.504 121.379 468.608 121.539 472.736C121.699 476.864 121.779 479.952 121.779 482ZM153.009 467.168C153.009 471.488 151.617 475.04 148.833 477.824C146.081 480.608 142.337 482 137.601 482H123.489C123.681 477.456 123.777 472.912 123.777 468.368C123.777 462.928 123.681 457.488 123.489 452.048H135.681C138.753 452.048 141.569 452.592 144.129 453.68C146.721 454.768 148.849 456.48 150.513 458.816C152.177 461.152 153.009 463.936 153.009 467.168ZM142.017 467.504C140.481 464.4 138.289 462.736 135.441 462.512C135.409 463.408 135.393 465.376 135.393 468.416C135.393 470.176 135.409 471.504 135.441 472.4C138.417 472.08 140.609 470.448 142.017 467.504ZM167.235 482H154.755C154.947 477.008 155.043 472.016 155.043 467.024C155.043 462.032 154.947 457.04 154.755 452.048H167.235C167.011 458.256 166.899 463.584 166.899 468.032C166.899 471.904 167.011 476.56 167.235 482ZM196.222 452.048L194.014 462.368C193.31 462.368 192.286 462.272 190.942 462.08C189.598 461.888 188.574 461.792 187.87 461.792V468.608C187.87 473.056 187.966 477.52 188.158 482H176.11C176.302 477.84 176.398 473.664 176.398 469.472V465.92C176.398 465.472 176.382 464.8 176.35 463.904C176.35 463.008 176.35 462.336 176.35 461.888H176.11C173.134 461.888 170.75 462.112 168.958 462.56L169.87 452.048H196.222ZM210.407 482H197.927C198.119 477.008 198.215 472.016 198.215 467.024C198.215 462.032 198.119 457.04 197.927 452.048H210.407C210.183 458.256 210.071 463.584 210.071 468.032C210.071 471.904 210.183 476.56 210.407 482ZM240.114 456.032C243.122 458.656 244.626 462.32 244.626 467.024C244.626 471.728 243.106 475.408 240.066 478.064C237.058 480.688 233.17 482 228.402 482C223.634 482 219.73 480.688 216.69 478.064C213.65 475.408 212.13 471.728 212.13 467.024C212.13 462.32 213.634 458.656 216.642 456.032C219.682 453.376 223.602 452.048 228.402 452.048C233.202 452.048 237.106 453.376 240.114 456.032ZM231.81 470.144C232.77 469.184 233.25 468.032 233.25 466.688C233.25 465.344 232.77 464.208 231.81 463.28C230.882 462.352 229.746 461.888 228.402 461.888C227.09 461.888 225.954 462.368 224.994 463.328C224.066 464.256 223.602 465.376 223.602 466.688C223.602 468.032 224.066 469.184 224.994 470.144C225.922 471.072 227.058 471.536 228.402 471.536C229.746 471.536 230.882 471.072 231.81 470.144ZM279.372 482H271.164L257.772 468.224C257.772 469.28 257.756 470.848 257.724 472.928C257.692 475.008 257.676 476.56 257.676 477.584C257.676 479.056 257.724 480.528 257.82 482H246.348C246.988 477.168 247.308 472.448 247.308 467.84C247.308 462.304 246.988 457.04 246.348 452.048H254.94L267.42 463.184C267.228 458.192 267.052 454.48 266.892 452.048H279.372C279.052 455.664 278.892 459.456 278.892 463.424C278.892 465.504 278.972 468.608 279.132 472.736C279.292 476.864 279.372 479.952 279.372 482ZM291.067 483.296L281.083 477.872C284.923 476.784 286.843 475.024 286.843 472.592C286.843 471.536 286.555 470.496 285.979 469.472C285.403 468.416 284.763 467.52 284.059 466.784C283.387 466.048 282.763 465.152 282.187 464.096C281.611 463.04 281.323 461.968 281.323 460.88C281.323 459.92 281.579 458.96 282.091 458C282.987 456.272 284.139 454.928 285.547 453.968C286.955 453.008 288.747 452.16 290.923 451.424L299.371 456.512C296.523 458.144 295.099 460.048 295.099 462.224C295.099 462.96 295.371 463.776 295.915 464.672C296.491 465.536 297.115 466.336 297.787 467.072C298.459 467.808 299.067 468.768 299.611 469.952C300.187 471.104 300.475 472.304 300.475 473.552C300.475 477.84 297.339 481.088 291.067 483.296ZM315.589 476.576L309.205 483.056C308.309 482.416 306.965 481.568 305.173 480.512C303.381 479.424 302.101 478.624 301.333 478.112L307.765 470.864L315.589 476.576Z" fill="black"/>
</svg>
